<svg width="64" height="56" viewBox="0 0 64 56" fill="none" xmlns="http://www.w3.org/2000/svg">
<path fill-rule="evenodd" clip-rule="evenodd" d="M13.1281 0.961966C12.4263 -0.0518037 11.0355 -0.304672 10.0217 0.397168C9.00798 1.09901 8.75511 2.48978 9.45695 3.50355L36.2477 42.2012C36.9495 43.215 38.3403 43.4679 39.354 42.766C40.3678 42.0642 40.6207 40.6734 39.9188 39.6596L13.1281 0.961966ZM13.4658 21.2969C14.0089 19.9948 14.6848 18.7618 15.4765 17.615L18.2506 21.622C17.8441 22.3768 17.4976 23.1689 17.2175 23.992C16.945 24.7924 16.2438 25.3703 15.406 25.4846C9.22045 26.3292 4.46512 31.5704 4.46512 37.9539C4.46512 44.9397 10.1305 50.6051 17.1163 50.6051H49.8605C55.2031 50.6051 59.5349 46.2733 59.5349 40.9307C59.5349 35.588 55.2031 31.2562 49.8605 31.2562C48.6275 31.2562 47.6279 30.2567 47.6279 29.0237C47.6279 20.3918 40.6319 13.3958 32 13.3958C29.8901 13.3958 27.8784 13.8147 26.043 14.5741L23.4554 10.8364C26.0461 9.61431 28.9416 8.93066 32 8.93066C42.3978 8.93066 50.9497 16.8266 51.9874 26.9501C58.7871 27.976 64 33.8449 64 40.9307C64 48.7393 57.6691 55.0702 49.8605 55.0702H17.1163C7.66448 55.0702 0 47.4057 0 37.9539C0 29.7449 5.78591 22.9693 13.4658 21.2969Z" fill="#F4F3F8"/>
</svg>
