<svg width="150" height="150" viewBox="0 0 150 150" fill="none" xmlns="http://www.w3.org/2000/svg">
<rect width="150" height="150" fill="white"/>
<path fill-rule="evenodd" clip-rule="evenodd" d="M89.4935 80.4784C86.2706 78.6104 82.4494 76.3749 74.9028 71.9841C74.4275 72.2618 67.4036 76.3279 60.3519 80.4089C62.2007 77.1874 64.4232 73.35 68.7623 65.8213C68.4845 65.3449 64.4014 58.2612 60.3148 51.1672C63.5347 53.0352 67.3589 55.2709 74.9028 59.6622C75.3778 59.3838 82.4025 55.3174 89.4539 51.2369C87.6046 54.4587 85.385 58.2955 81.0433 65.8243C81.3232 66.2985 85.4044 73.3846 89.4935 80.4784M99.7481 90.7784C94.2635 87.5994 87.7541 83.7942 74.9034 76.3133C74.0964 76.7875 62.1318 83.7122 50.1227 90.6619C53.2712 85.1779 57.0556 78.6404 64.4462 65.8213C63.9731 65.0093 57.0208 52.9457 50.0586 40.8671C55.5457 44.0467 62.0553 47.8519 74.9058 55.3301C75.7133 54.858 87.6747 47.9333 99.684 40.9842C96.5355 46.4684 92.7512 53.0054 85.3606 65.8242C85.8361 66.6337 92.7886 78.7001 99.7481 90.7784" fill="#EC3237"/>
<path d="M74.75 125L52.748 113.239C46.4756 109.894 41.2303 104.899 37.575 98.7919C33.9198 92.6842 31.9925 85.694 32 78.5714V32.1429C32.0019 30.249 32.7532 28.4333 34.089 27.0942C35.4248 25.755 37.2359 25.0019 39.125 25H110.375C112.264 25.0019 114.075 25.755 115.411 27.0942C116.747 28.4333 117.498 30.249 117.5 32.1429V78.5714C117.508 85.694 115.58 92.6842 111.925 98.7919C108.27 104.899 103.024 109.894 96.752 113.239L74.75 125ZM39.125 32.1429V78.5714C39.1191 84.3993 40.6964 90.1188 43.6877 95.1159C46.679 100.113 50.9713 104.199 56.1039 106.936L74.75 116.904L93.3961 106.939C98.5292 104.202 102.822 100.116 105.813 95.1179C108.805 90.1201 110.382 84.3999 110.375 78.5714V32.1429H39.125Z" fill="#033374"/>
</svg>
