<?xml version="1.0" standalone="no"?>
<!DOCTYPE svg PUBLIC "-//W3C//DTD SVG 1.1//EN" "http://www.w3.org/Graphics/SVG/1.1/DTD/svg11.dtd" >
<svg xmlns="http://www.w3.org/2000/svg">
<defs>
  <font id="icon" horiz-adv-x="352.112676056338">
    <font-face font-family="icon"
      units-per-em="300" ascent="0"
      descent="33" />
    <missing-glyph horiz-adv-x="0" />
    <glyph glyph-name="ads"
      unicode="&#xF101;"
      horiz-adv-x="300" d="M163.4765625 247.078125Q161.1328125 251.1796875 156.4453125 251.1796875T149.4140625 247.078125Q148.828125 244.734375 146.19140625 240.33984375T134.765625 223.0546875T115.4296875 196.6875T87.3046875 164.16796875T49.8046875 127.546875Q48.046875 126.9609375 46.875 126.375L10.546875 104.6953125Q3.515625 100.59375 7.6171875 94.1484375L9.375 91.8046875Q2.9296875 85.9453125 1.171875 77.15625Q-2.34375 64.265625 4.6875 53.1328125Q14.0625 37.3125 32.2265625 37.3125Q36.328125 37.3125 40.4296875 39.0703125L42.1875 36.7265625Q44.53125 32.625 48.6328125 32.625Q50.9765625 32.625 52.734375 33.796875L68.5546875 43.171875Q75 37.8984375 78.22265625 28.5234375T82.32421875 12.1171875T84.375 -7.8046875V-16.0078125Q84.9609375 -23.0390625 91.9921875 -23.0390625L122.4609375 -24.796875Q130.078125 -24.796875 130.6640625 -17.765625Q134.765625 19.1484375 123.6328125 68.3671875Q192.1875 88.2890625 242.578125 88.2890625H243.75Q248.4375 88.2890625 250.78125 92.390625T250.78125 100.59375zM87.3046875 73.0546875L77.34375 90.046875L61.5234375 116.4140625Q122.4609375 170.90625 157.03125 227.15625L230.2734375 104.109375Q164.0625 100.59375 87.3046875 73.0546875zM289.74609375 223.0546875Q278.3203125 242.390625 257.2265625 252.05859375T213.8671875 257.625Q210.3515625 257.0390625 208.59375 254.40234375T207.421875 248.54296875T210.64453125 243.26953125T216.796875 241.8046875Q225 243.5625 233.7890625 242.390625T250.48828125 237.703125T264.84375 228.328125T275.9765625 214.8515625Q285.3515625 199.6171875 283.88671875 181.453125T271.2890625 149.8125Q266.6015625 143.3671875 272.4609375 138.6796875Q274.8046875 136.921875 277.734375 136.921875Q281.8359375 136.921875 284.1796875 139.8515625Q298.2421875 157.4296875 299.70703125 180.57421875T289.74609375 223.0546875zM209.1796875 220.7109375Q205.6640625 220.125 203.90625 217.48828125T202.734375 211.62890625T205.95703125 206.35546875T212.109375 204.890625Q219.7265625 206.6484375 227.34375 203.1328125T239.0625 192.5859375Q248.4375 177.3515625 236.71875 163.2890625Q232.03125 156.84375 237.890625 152.15625Q240.234375 150.3984375 243.1640625 150.3984375Q246.6796875 150.3984375 249.609375 153.328125Q257.8125 163.2890625 258.69140625 176.47265625T252.83203125 200.7890625T234.08203125 217.48828125T209.1796875 220.7109375z" />
    <glyph glyph-name="ai-icon"
      unicode="&#xF102;"
      horiz-adv-x="300" d="M149.984765625 95.748046875L145.0494140625 98.5927734375L131.5798828125 106.3734375V127.6283203125L149.9900390625 138.253125L152.80546875 136.6294921875L168.399609375 127.618359375L168.394921875 106.36875L149.984765625 95.748046875zM230.6625 220.4090625C224.973046875 220.4090625 219.4294921875 219.59208984375 214.19296875 217.97771484375C214.027734375 217.92908203125 213.8625 217.9728515625 213.697265625 217.92908203125L131.5705078125 170.5072265625L131.5658203125 143.7228515625L183.25546875 173.555859375C185.4146484375 174.8056640625 188.06953125 174.8009765625 190.2287109375 173.555859375L273.0263671875 125.7556640625C282.25078125 136.10859375 287.4878906250001 149.6021484375 287.4878906250001 163.543359375C287.4779296875 194.89921875 261.992578125 220.4090625 230.6625 220.4090625zM30.06708984375 122.5265625L113.204296875 74.5259765625L136.0353515625 87.7037109375L121.121484375 96.3111328125C121.0974609375 96.32578125 121.0828125 96.3498046875 121.0587890625 96.359765625L84.355078125 117.5607421875C82.196484375 118.805859375 80.86875 121.10625 80.86875 123.5958984375V219.08560546875C77.1052734375 219.8684765625 73.2732421875 220.4082421875 69.315234375 220.4082421875C37.98462890625 220.4082421875 12.49880859375 194.8986328125 12.49880859375 163.5427734375C12.49880859375 148.10390625 18.9075 133.2052734375 30.06708984375 122.5265625zM269.9373046875 111.434765625L186.7318359375 159.46875L163.9259765625 146.3109375L178.84921875 137.694140625C178.873828125 137.6794921875 178.887890625 137.6595703125 178.9125 137.6455078125L215.6203125 116.438671875C217.7794921875 115.194140625 219.1072265625 112.89375 219.1072265625 110.4041015625V14.9044921875C222.870703125 14.1216796875 226.702734375 13.5814453125 230.6607421875 13.5814453125C261.99140625 13.5814453125 287.47734375 39.09140625 287.47734375 70.447265625C287.4720703125 85.8720703125 281.073046875 100.7560546875 269.9373046875 111.434765625zM94.81171875 127.6177734375L117.6076171875 114.4494140625L117.622265625 174.5390625C117.622265625 177.0287109375 118.9494140625 179.3291015625 121.10859375 180.57421875L203.8376953125 228.34072265625C196.149609375 251.35078125 174.744140625 267 149.98828125 267C123.608203125 267 101.0255859375 249.23203125 94.8111328125 223.721015625L94.81171875 127.6177734375zM69.3169921875 13.585546875C74.8072265625 13.585546875 80.1462890625 14.38828125 85.217578125 15.8859375L168.3884765625 63.9052734375L168.39375 90.2712890625L153.4751953125 81.6591796875C153.4705078125 81.6544921875 153.460546875 81.6544921875 153.451171875 81.6498046875L153.4365234375 81.6451171875C153.4265625 81.63984375 153.4171875 81.63515625 153.4072265625 81.63046875L116.694140625 60.4388671875C115.61484375 59.8166015625 114.4083984375 59.50546875 113.2072265625 59.50546875C112.0013671875 59.50546875 110.8001953125 59.8166015625 109.7208984375 60.4388671875L26.94328125 108.230859375C17.723671875 97.8779296875 12.49681640625 84.3890625 12.49681640625 70.4513671875C12.5016796875 39.0955078125 37.98685546875 13.585546875 69.3169921875 13.585546875zM205.1677734375 106.381640625L182.342578125 119.569921875V102.3509765625C182.342578125 102.345703125 182.3373046875 102.336328125 182.3373046875 102.3310546875L182.3326171875 59.883984375C182.3326171875 57.3943359375 181.0048828125 55.0892578125 178.845703125 53.844140625L96.0046875 6.0193359375C103.580859375 -17.19140625 125.0982421875 -33 149.9853515625 -33C176.36484375 -33 198.948046875 -15.23203125 205.1619140625 10.2791015625L205.1677734375 106.381640625z" />
    <glyph glyph-name="alert-circle-2"
      unicode="&#xF103;"
      horiz-adv-x="300" d="M150 267C67.5 267 0 199.5 0 117C0 34.5 67.5 -33 150 -33C232.5 -33 300 34.5 300 117C300 201 232.5 267 150 267zM150 -3C84 -3 30 51 30 117C30 183 84 237 150 237C216 237 270 183 270 117C270 51 216 -3 150 -3zM164.9994140625 34.5L134.9994140625 34.5L134.9994140625 64.5L164.9994140625 64.5L164.9994140625 34.5zM164.9994140625 184.5L164.9994140625 94.5L134.9994140625 94.5L134.9994140625 184.5L164.9994140625 184.5z" />
    <glyph glyph-name="alert-circle"
      unicode="&#xF104;"
      horiz-adv-x="300" d="M150 267C67.5 267 0 199.5 0 117C0 34.5 67.5 -33 150 -33C232.5 -33 300 34.5 300 117C300 199.5 232.5 267 150 267zM165 42H135V72H165V42zM165 102H135V192H165V102z" />
    <glyph glyph-name="analytics"
      unicode="&#xF105;"
      horiz-adv-x="300" d="M284.28515625 95.8822265625C279.748828125 95.8822265625 273.7001953125 92.858203125 270.6767578125 89.83359375L241.9453125 101.930859375C241.9453125 103.4431640625 243.4576171875 104.9560546875 243.4576171875 106.4671875C243.4576171875 117.0521484375 234.3837890625 124.6130859375 225.31171875 124.6130859375C214.726171875 124.6130859375 207.165234375 117.0521484375 207.165234375 106.4671875C207.165234375 103.4431640625 207.165234375 103.4431640625 208.6775390625 100.4185546875L170.8740234375 45.980859375C167.848828125 49.0060546875 163.3125 50.518359375 158.776171875 50.518359375C157.2638671875 50.518359375 155.752734375 50.518359375 154.23984375 49.0060546875L113.4111328125 185.0994140625C111.9 189.6357421875 113.4111328125 192.6609375 113.4111328125 195.6849609375C113.4111328125 207.7822265625 104.3390625 218.3671875 90.72890625 218.3671875C75.6076171875 218.3671875 65.02265625 209.294296875 65.02265625 195.6849609375C65.02265625 192.6609375 65.02265625 192.6609375 66.5349609375 189.6357421875L30.2431640625 160.9048828125C27.2187890625 163.9294921875 22.68240234375 165.4423828125 18.1458984375 165.4423828125C9.072890625 165.4423828125 0 157.880859375 0 147.2958984375C0 136.7109375 9.072890625 129.1494140625 18.1458984375 129.1494140625C28.73103515625 129.1494140625 36.291796875 136.7109375 36.291796875 147.2958984375C36.291796875 150.3193359375 34.77966796875 151.8322265625 34.77966796875 154.857421875L69.558984375 182.0759765625C75.6076171875 176.02734375 83.1685546875 174.514453125 90.72890625 174.514453125C95.26640625 174.514453125 101.3150390625 177.5384765625 105.8513671875 179.05078125L145.1677734375 45.980859375C142.142578125 42.9568359375 139.119140625 38.4205078125 139.119140625 33.884765625C139.119140625 23.2998046875 148.1912109375 15.73828125 157.2638671875 15.73828125C167.848828125 15.73828125 175.4103515625 23.2998046875 175.4103515625 33.884765625C175.4103515625 36.908203125 175.4103515625 36.908203125 173.8974609375 39.9333984375L211.7015625 94.37109375C214.726171875 91.3458984375 219.2625 89.83359375 223.798828125 89.83359375C228.33515625 89.83359375 234.3837890625 92.858203125 237.408984375 95.8822265625L264.6275390625 82.2732421875C264.6275390625 80.7609375 263.115234375 79.248046875 263.115234375 77.7369140625C263.115234375 67.151953125 272.187890625 59.591015625 281.26171875 59.591015625C291.8466796875 59.591015625 299.4064453125 67.151953125 299.4064453125 77.7369140625C302.431640625 88.321875 293.358984375 95.8822265625 284.28515625 95.8822265625z" />
    <glyph glyph-name="android"
      unicode="&#xF106;"
      horiz-adv-x="300" d="M187.678125 204.4751953125H175.1794921875V216.9739453125H187.678125V204.4751953125zM125.1849609375 204.4751953125H112.6857421875V216.9739453125H125.1849609375V204.4751953125zM194.3021484375 239.97158203125L210.676171875 256.34484375C213.0509765625 258.71958984375 213.0509765625 262.719216796875 210.676171875 265.21884375C208.1759765625 267.59371875 204.176953125 267.59371875 201.8021484375 265.21884375L183.303515625 246.7208203125C173.3044921875 251.5953515625 162.0556640625 254.4699609375 150.1822265625 254.4699609375C138.1833984375 254.4699609375 126.9345703125 251.5953515625 116.9361328125 246.59583984375L98.312109375 265.21884375C95.9384765625 267.59371875 91.93828125 267.59371875 89.5634765625 265.21884375C87.06328125 262.719216796875 87.06328125 258.71958984375 89.5634765625 256.34484375L105.9369140625 239.97158203125C87.3134765625 226.22296875 75.18984375 204.4751953125 75.18984375 179.47734375H225.174609375C225.174609375 204.4751953125 212.6759765625 226.34794921875 194.3021484375 239.97158203125zM256.4208984375 166.9787109375C246.046875 166.9787109375 237.6732421875 158.605078125 237.6732421875 148.2310546875V60.7400390625C237.6732421875 50.366015625 246.046875 41.9923828125 256.4208984375 41.9923828125C266.794921875 41.9923828125 275.1697265625 50.366015625 275.1697265625 60.7400390625V148.2310546875C275.1697265625 158.605078125 266.794921875 166.9787109375 256.4208984375 166.9787109375zM43.9433203125 166.9787109375C33.5694140625 166.9787109375 25.1953125 158.605078125 25.1953125 148.2310546875V60.7400390625C25.1953125 50.366015625 33.5694140625 41.9923828125 43.9433203125 41.9923828125C54.31716796875 41.9923828125 62.6912109375 50.366015625 62.6912109375 60.7400390625V148.2310546875C62.6912109375 158.605078125 54.31716796875 166.9787109375 43.9433203125 166.9787109375zM75.18984375 41.9923828125C75.18984375 35.117578125 80.81484375 29.49375 87.6884765625 29.49375H100.187109375V-14.25234375C100.187109375 -24.6263671875 108.5619140625 -33 118.9359375 -33C129.3099609375 -33 137.68359375 -24.6263671875 137.68359375 -14.25234375V29.49375H162.680859375V-14.25234375C162.680859375 -24.6263671875 171.0544921875 -33 181.428515625 -33C191.803125 -33 200.17734375 -24.6263671875 200.17734375 -14.25234375V29.49375H212.6759765625C219.549609375 29.49375 225.174609375 35.117578125 225.174609375 41.9923828125V166.9787109375H75.18984375V41.9923828125z" />
    <glyph glyph-name="antifraud"
      unicode="&#xF107;"
      horiz-adv-x="300" d="M100.05 266.9850333984375L101.6484375 266.740836328125L236.7158203125 233.40796875C239.239453125 232.7869921875 241.3330078125 231.07095703125 242.40234375 228.75796875L275.9625 156.2302734375L276.0087890625 156.0802734375L300 152.3390625L297.3076171875 135.887109375L267.549609375 140.525390625L284.9935546875 103.121484375L285.0978515625 102.896484375C286.3828125 100.0283203125 287.034375 97.013671875 287.034375 93.929296875C287.034375 81.60234375 276.755859375 71.5763671875 264.1283203125 71.5763671875H263.7228515625V65.47734375C263.7228515625 60.1705078125 262.846875 55.067578125 261.29765625 50.2494140625L297.4916015625 41.915625L271.4841796875 7.58671875L281.8892578125 -33H0C1.63528125 0.5876953125 23.67158203125 28.9048828125 54.30849609375 40.47890625L35.42900390625 102.254296875L68.39296875 94.6646484375C59.5248046875 109.790625 54.72650390625 127.0494140625 54.72650390625 145.121484375C54.72650390625 154.8169921875 56.1496875 164.1861328125 58.753125 173.08125L24.32015625 178.4484375L27.01283203125 194.900390625L50.12501953125 191.300390625L92.1474609375 262.8048515625C94.0529296875 266.05083984375 97.9259765625 267.667833984375 101.6484375 266.740836328125L100.05 266.9850333984375zM75.7177734375 170.43515625C73.175390625 162.437109375 71.801953125 153.93515625 71.801953125 145.121484375C71.801953125 123.5185546875 80.0947265625 103.85625 93.6720703125 88.84453125L244.6095703125 54.0896484375C245.900390625 57.659765625 246.64453125 61.47890625 246.64453125 65.47734375V88.2416015625H264.125390625C267.346875 88.2416015625 269.953125 90.779296875 269.953125 93.929296875C269.953125 94.7513671875 269.765625 95.5166015625 269.4462890625 96.2244140625L247.320703125 143.6783203125L75.7177734375 170.43515625zM228 135C234.6275390625 135 240 129.6275390625 240 123C240 116.3724609375 234.6275390625 111 228 111C221.3724609375 111 216 116.3724609375 216 123C216 129.6275390625 221.3724609375 135 228 135z" />
    <glyph glyph-name="api-log"
      unicode="&#xF108;"
      horiz-adv-x="300" d="M292.1064 148.5792H272.3388C269.3538 160.1682 264.7476 171.0942 258.8088 181.1496L272.8128 195.1536C275.8962 198.2376 275.8962 203.2356 272.8128 206.3166L239.319 239.80974C236.235 242.89362 231.2376 242.89362 228.156 239.80974L214.1526 225.80574C204.1026 231.74226 193.1712 236.3544 181.5828 239.33598L181.5786 259.10598C181.5786 263.467464 178.0464 267 173.685 267H126.315C121.9536 267 118.4208 263.467326 118.4208 259.10598V239.33886C106.8318 236.3541 95.9058 231.74724 85.8504 225.80862L71.8464 239.8125C68.7624 242.89638 63.7644 242.89638 60.6834 239.8125L27.19026 206.319C24.10638 203.2356 24.10638 198.2376 27.19026 195.1566L41.19426 181.1526C35.25774 171.1026 30.6456 160.1712 27.66402 148.5822L7.89402 148.5792C3.532536 148.5792 0 145.0464 0 140.685V93.3174C0 88.956 3.532674 85.4238 7.89402 85.4238H27.66114C30.6459 73.8348 35.25276 62.9088 41.19138 52.8522L27.1875 38.8488C24.10362 35.7648 24.10362 30.7674 27.1875 27.6864L60.681 -5.8074C63.7644 -8.8914 68.7624 -8.8914 71.8434 -5.8074L85.8474 8.1972C95.8974 2.2602 106.8288 -2.3514 118.4178 -5.334L118.4208 -25.1064C118.4208 -29.4678 121.9536 -33 126.315 -33H173.6826C178.044 -33 181.5762 -29.4678 181.5762 -25.1064V-5.3388C193.1652 -2.3538 204.0912 2.2524 214.1478 8.1912L228.1512 -5.8128C231.2352 -8.8962 236.2326 -8.8962 239.3136 -5.8128L272.8074 27.681C275.8914 30.765 275.8914 35.7624 272.8074 38.844L258.8028 52.8474C264.7398 62.8974 269.3514 73.8288 272.334 85.4172L292.1064 85.4214C296.4678 85.4214 300 88.9536 300 93.315V140.685C300 145.0464 296.4678 148.5792 292.1064 148.5792zM112.1628 91.0014C115.2468 87.9174 115.2468 82.92 112.1628 79.839C110.6208 78.2964 108.6 77.526 106.5786 77.526C104.5578 77.526 102.5364 78.2964 100.9974 79.839L69.4176 111.4188C66.3342 114.5022 66.3342 119.5002 69.4176 122.5812L100.9974 154.1604C104.076 157.2444 109.0818 157.2444 112.1598 154.1604C115.2438 151.0764 115.2438 146.079 112.1598 142.998L86.1672 117L112.1628 91.0014zM173.121 153.5406L141.5412 74.5938C140.3052 71.5074 137.34 69.6324 134.2128 69.6324C133.2324 69.6324 132.2436 69.8136 131.2824 70.1988C127.2324 71.8188 125.2662 76.4112 126.885 80.4612L158.4648 159.4086C160.0836 163.4592 164.676 165.4254 168.7278 163.806C172.7724 162.1842 174.7386 157.5912 173.1228 153.5412L173.121 153.5406zM230.5836 111.4188L199.0038 79.839C197.4648 78.2964 195.444 77.526 193.4226 77.526C191.4012 77.526 189.3798 78.2964 187.8414 79.839C184.7574 82.9224 184.7574 87.9198 187.8414 91.0014L213.834 117L187.8414 142.998C184.7574 146.082 184.7574 151.0794 187.8414 154.1604C190.92 157.2444 195.9264 157.2444 199.0038 154.1604L230.5836 122.5812C233.6652 119.4972 233.6652 114.5022 230.5836 111.4188z" />
    <glyph glyph-name="apps"
      unicode="&#xF109;"
      horiz-adv-x="300" d="M49.8046875 166.8046875V217.1953125H100.1953125V166.8046875H49.8046875zM124.8046875 16.8046875V67.1953125H175.1953125V16.8046875H124.8046875zM49.8046875 16.8046875V67.1953125H100.1953125V16.8046875H49.8046875zM49.8046875 91.8046875V142.1953125H100.1953125V91.8046875H49.8046875zM124.8046875 91.8046875V142.1953125H175.1953125V91.8046875H124.8046875zM199.8046875 217.1953125H250.1953125V166.8046875H199.8046875V217.1953125zM124.8046875 166.8046875V217.1953125H175.1953125V166.8046875H124.8046875zM199.8046875 91.8046875V142.1953125H250.1953125V91.8046875H199.8046875zM199.8046875 16.8046875V67.1953125H250.1953125V16.8046875H199.8046875z" />
    <glyph glyph-name="arrow-down"
      unicode="&#xF10A;"
      horiz-adv-x="300" d="M35.62529296875 201.375L150 92.625L264.375 201.375L300 167.625L150 25.125L0.0002861021484 167.625L35.62529296875 201.375z" />
    <glyph glyph-name="arrow-left"
      unicode="&#xF10B;"
      horiz-adv-x="300" d="M238.359375 231.375L129.609375 117L238.359375 2.625L204.609375 -33L62.109375 117L204.609375 267L238.359375 231.375z" />
    <glyph glyph-name="arrow-right"
      unicode="&#xF10C;"
      horiz-adv-x="300" d="M62.109375 2.625L170.859375 117L62.109375 231.375L95.859375 267L238.359375 117L95.859375 -33L62.109375 2.625z" />
    <glyph glyph-name="arrow-up"
      unicode="&#xF10D;"
      horiz-adv-x="300" d="M264.375 28.640625L150 137.390625L35.625 28.640625L0 62.390625L150 204.890625L300 62.390625L264.375 28.640625z" />
    <glyph glyph-name="audio"
      unicode="&#xF10E;"
      horiz-adv-x="300" d="M183 -31.7578125V2.7421875C231 16.2421875 265.5 64.2421875 265.5 116.7421875C265.5 170.7421875 231 215.7421875 183 230.7421875V265.2421875C250.5 248.7421875 300 188.7421875 300 116.7421875C300 44.7421875 250.5 -15.2578125 183 -31.7578125zM0 67.2421875V169.2421875H67.5L150 254.7421875V-16.7578125L67.5 68.7421875L0 67.2421875zM225 116.7421875C225 86.7421875 207 59.7421875 184.5 47.7421875V185.7421875C207 172.2421875 225 146.7421875 225 116.7421875z" />
    <glyph glyph-name="avg-time"
      unicode="&#xF10F;"
      horiz-adv-x="300" d="M196.5005859375 216.11724609375C192.0005859375 216.11724609375 189.0005859375 216.11724609375 189.0005859375 216.11724609375C189.0005859375 216.11724609375 189.0005859375 211.61724609375 189.0005859375 207.1171875V204.1171875C189.0005859375 199.6171875 193.5005859375 198.1171875 196.5005859375 198.1171875H198.0005859375C202.5005859375 198.1171875 205.5005859375 201.1171875 205.5005859375 204.1171875V207.1171875C205.5005859375 211.61724609375 205.5005859375 214.61724609375 205.5005859375 216.11724609375C205.5005859375 217.61724609375 205.5005859375 216.11724609375 205.5005859375 216.11724609375C204.0005859375 216.11724609375 199.5005859375 216.11724609375 196.5005859375 216.11724609375zM178.5005859375 219.1171875H214.5005859375C217.5005859375 219.1171875 220.5005859375 222.1171875 220.5005859375 225.1171875V231.1171875C220.5005859375 235.6171875 217.5005859375 237.1171875 214.5005859375 237.1171875H178.5005859375C175.5005859375 237.1171875 172.5005859375 234.1171875 172.5005859375 231.1171875V225.1171875C172.5005859375 222.1171875 177.0005859375 219.1171875 178.5005859375 219.1171875zM210.0005859375 202.6171875C210.0005859375 198.1171875 207.0005859375 192.1171875 196.5005859375 192.1171875C186.0005859375 192.1171875 183.0005859375 198.1171875 183.0005859375 202.6171875C132.0005859375 196.6171875 93.0005859375 153.1171875 93.0005859375 100.6171875C93.0005859375 43.6171875 139.5005859375 -2.8828125 196.5005859375 -2.8828125C253.5005859375 -2.8828125 300.0005859375 43.6171875 300.0005859375 100.6171875C300.0005859375 153.1171875 259.5005859375 196.6171875 210.0005859375 202.6171875zM196.5005859375 18.1171875C150.0005859375 18.1171875 114.0005859375 55.6171875 114.0005859375 100.6171875C114.0005859375 145.6171875 151.5005859375 183.1171875 196.5005859375 183.1171875C241.5005859375 183.1171875 279.0005859375 145.6171875 279.0005859375 100.6171875C279.0005859375 54.1171875 241.5005859375 18.1171875 196.5005859375 18.1171875zM199.5 109.6171875V166.6171875H195V109.6171875C190.5 108.1171875 186 105.1171875 186 99.1171875C186 93.1171875 190.5 88.6171875 196.5 88.6171875C202.5 88.6171875 207 93.1171875 207 99.1171875C207 103.6171875 204 108.1171875 199.5 109.6171875zM207 114.1171875C207 114.1171875 210 112.6171875 211.5 111.1171875C213 109.6171875 214.5 106.6171875 214.5 106.6171875L232.5 124.6171875L223.5 132.1171875L207 114.1171875zM0 103.6171875C0 100.6171875 4.5 96.1171875 7.5 96.1171875H72C76.5 96.1171875 79.5 99.1171875 79.5 103.6171875C79.5 108.1171875 75 111.1171875 72 111.1171875H7.5C3 111.1171875 0 108.1171875 0 103.6171875zM44.99970703125 178.6171875C44.99970703125 174.1171875 49.49970703125 171.1171875 52.49970703125 171.1171875H98.9994140625C103.4994140625 171.1171875 106.4994140625 175.6171875 106.4994140625 178.6171875C106.4994140625 183.1171875 101.9994140625 186.1171875 98.9994140625 186.1171875H52.49970703125C47.99970703125 186.1171875 44.99970703125 183.1171875 44.99970703125 178.6171875zM44.99970703125 28.6171875C44.99970703125 25.6171875 49.49970703125 21.1171875 52.49970703125 21.1171875H98.9994140625C103.4994140625 21.1171875 106.4994140625 25.6171875 106.4994140625 28.6171875C106.4994140625 33.1171875 101.9994140625 36.1171875 98.9994140625 36.1171875H52.49970703125C47.99970703125 36.1171875 44.99970703125 31.6171875 44.99970703125 28.6171875zM16.5001171875 66.1171875C16.5001171875 61.6171875 21.0001171875 58.6171875 24.0001171875 58.6171875H79.5C84 58.6171875 87 63.1171875 87 66.1171875C87 69.1171875 82.5 73.6171875 79.5 73.6171875H24.0001171875C19.5001171875 73.6171875 16.5001171875 69.1171875 16.5001171875 66.1171875zM16.5001171875 142.6171875C16.5001171875 138.1171875 21.0001171875 135.1171875 24.0001171875 135.1171875H79.5C84 135.1171875 87 139.6171875 87 142.6171875C87 147.1171875 82.5 150.1171875 79.5 150.1171875H24.0001171875C19.5001171875 150.1171875 16.5001171875 145.6171875 16.5001171875 142.6171875z" />
    <glyph glyph-name="bars-menu"
      unicode="&#xF110;"
      horiz-adv-x="300" d="M37.5 192H262.5V166.8046875H37.5V192zM37.5 129.3046875H262.5V104.6953125H37.5V129.3046875zM37.5 67.1953125H262.5V42H37.5V67.1953125z" />
    <glyph glyph-name="bars"
      unicode="&#xF111;"
      horiz-adv-x="300" d="M108.984375 57.234375V176.765625H124.8046875V57.234375H108.984375zM141.2109375 16.8046875V217.1953125H157.6171875V16.8046875H141.2109375zM75 97.078125V136.921875H91.40625V97.078125H75zM175.1953125 57.234375V176.765625H191.015625V57.234375H175.1953125zM208.59375 136.921875H225V97.078125H208.59375V136.921875z" />
    <glyph glyph-name="bell"
      unicode="&#xF112;"
      horiz-adv-x="300" d="M150.0298828125 -33C166.9529296875 -33 180.79921875 -19.1537109375 180.79921875 -2.23125H119.2611328125C119.2611328125 -19.1537109375 132.952734375 -33 150.0298828125 -33zM242.337890625 59.307421875V136.2310546875C242.337890625 183.4611328125 217.10625 222.9999609375 173.1064453125 233.46158203125V243.92314453125C173.1064453125 256.69236328125 162.79921875 267 150.0298828125 267C137.2611328125 267 126.952734375 256.69236328125 126.952734375 243.92314453125V233.46158203125C82.798828125 222.9999609375 57.72240234375 183.615234375 57.72240234375 136.2310546875V59.307421875L26.953125 28.538671875V13.1537109375H273.106640625V28.538671875L242.337890625 59.307421875z" />
    <glyph glyph-name="boleto"
      unicode="&#xF113;"
      horiz-adv-x="300" d="M30 267H0V-33H30V267zM48.74970703125 267H35.62470703125V-33H48.74970703125V267zM116.251171875 267H67.501171875V-33H116.251171875V267zM179.9994140625 267H149.9994140625V-33H179.9994140625V267zM133.125 267H119.9994140625V-33H133.125V267zM219.3744140625 267H206.2494140625V-33H219.3744140625V267zM239.9994140625 267H226.8744140625V-33H239.9994140625V267zM281.2505859375 267H251.2505859375V-33H281.2505859375V267zM300 267H286.875V-33H300V267z" />
    <glyph glyph-name="book"
      unicode="&#xF114;"
      horiz-adv-x="300" d="M262.5 204.3046875Q277.734375 199.6171875 287.6953125 192V9.7734375Q287.6953125 7.4296875 285.64453125 5.37890625T281.25 3.328125Q279.4921875 3.328125 278.3203125 3.9140625Q253.7109375 16.8046875 218.5546875 16.8046875Q208.0078125 16.8046875 195.41015625 14.4609375T170.5078125 7.72265625T150 -1.9453125Q125.390625 16.8046875 81.4453125 16.8046875Q50.390625 16.8046875 21.6796875 3.328125Q21.09375 3.328125 20.21484375 3.03515625T18.75 2.7421875Q16.40625 2.7421875 14.35546875 4.5T12.3046875 8.6015625V192Q37.5 210.75 81.4453125 210.75T150 192Q174.609375 210.75 218.5546875 210.75Q242.578125 210.75 262.5 204.3046875zM262.5 35.5546875V179.6953125Q242.578125 185.5546875 218.5546875 185.5546875Q208.0078125 185.5546875 195.41015625 183.2109375T170.5078125 176.47265625T150 166.8046875V23.25Q162.3046875 30.8671875 182.51953125 36.43359375T218.5546875 42Q242.578125 42 262.5 35.5546875z" />
    <glyph glyph-name="calendar-pages-outline"
      unicode="&#xF115;"
      horiz-adv-x="300" d="M94.316015625 267C100.688671875 267 105.854296875 261.8343164062501 105.854296875 255.46212890625V251.61615234375H175.081640625V255.46212890625C175.081640625 261.8343164062501 180.247265625 267 186.6193359375 267C192.99140625 267 198.15703125 261.8343164062501 198.15703125 255.46212890625V251.61615234375H217.4373046875C240.80859375 251.61615234375 259.742578125 232.68193359375 259.742578125 209.3105859375V190.0810546875H264.5250000000001C284.126953125 190.0810546875 300 174.2080078125 300 154.60546875V2.475C300 -17.1169921875 284.122265625 -32.984765625 264.5250000000001 -32.984765625H97.025390625C77.4234375 -32.984765625 61.550390625 -17.1123046875 61.550390625 2.490234375V13.1666015625H26.954296875C6.9589453125 13.1666015625 -6.082734375 34.212890625 2.881341796875 52.125L16.01173828125 78.385546875C19.4803125 85.35 21.29302734375 93.009375 21.29302734375 100.7619140625V209.3105859375C21.29302734375 232.68193359375 40.22724609375 251.61615234375 63.598828125 251.61615234375H82.7783203125V255.46212890625C82.7783203125 261.8343164062501 87.9439453125 267 94.316015625 267zM175.081640625 228.54041015625V224.69443359375C175.081640625 218.32224609375 180.247265625 213.1565625 186.6193359375 213.1565625C192.99140625 213.1565625 198.15703125 218.32224609375 198.15703125 224.69443359375V228.54041015625H217.4373046875C228.0638671875 228.54041015625 236.6666015625 219.93755859375 236.6666015625 209.3105859375V178.768359375C236.6660156250001 178.73671875 236.6660156250001 178.705078125 236.6654296875 178.6734375C236.66484375 178.630078125 236.66484375 178.58671875 236.66484375 178.5427734375C236.66484375 178.50234375 236.66484375 178.4625 236.6654296875 178.4220703125C236.6654296875 178.3869140625 236.6660156250001 178.35234375 236.6666015625 178.3171875V89.5013671875C236.6666015625 79.627734375 233.73984375 69.973828125 228.2642578125 61.7607421875L216.9720703125 44.8072265625C213.4048828125 39.451171875 207.4095703125 36.242578125 200.9765625 36.242578125L73.0880859375 36.242578125L26.954296875 36.242578125C24.09158203125 36.242578125 22.24552734375 39.2578125 23.5209375 41.8048828125L36.66615234375 68.0953125C41.71810546875 78.235546875 44.368828125 89.410546875 44.368828125 100.7619140625V209.3105859375C44.368828125 219.93755859375 52.9716796875 228.54041015625 63.598828125 228.54041015625H82.7783203125V224.69443359375C82.7783203125 218.32224609375 87.9439453125 213.1565625 94.316015625 213.1565625C100.688671875 213.1565625 105.854296875 218.32224609375 105.854296875 224.69443359375V228.54041015625H175.081640625zM84.6263671875 13.1666015625H200.9765625C215.126953125 13.1666015625 228.33046875 20.2341796875 236.1779296875 32.015625L247.46953125 48.9685546875C255.46875 60.9685546875 259.742578125 75.0697265625 259.742578125 89.5013671875V167.005078125H264.5250000000001C271.3828125 167.005078125 276.9240234375 161.46328125 276.9240234375 154.60546875V2.475C276.9240234375 -4.362890625 271.3875 -9.909375 264.5250000000001 -9.909375H97.025390625C90.167578125 -9.909375 84.6263671875 -4.367578125 84.6263671875 2.490234375V13.1666015625zM79.85625 163.158984375C79.85625 169.5310546875 85.021875 174.6966796875 91.3939453125 174.6966796875H183.697265625C190.0693359375 174.6966796875 195.2349609375 169.5310546875 195.2349609375 163.158984375C195.2349609375 156.7869140625 190.0693359375 151.6212890625 183.697265625 151.6212890625H91.3939453125C85.021875 151.6212890625 79.85625 156.7869140625 79.85625 163.158984375zM91.3939453125 113.1615234375C85.021875 113.1615234375 79.85625 107.9958984375 79.85625 101.623828125C79.85625 95.2517578125 85.021875 90.085546875 91.3939453125 90.085546875H183.697265625C190.0693359375 90.085546875 195.2349609375 95.2517578125 195.2349609375 101.623828125C195.2349609375 107.9958984375 190.0693359375 113.1615234375 183.697265625 113.1615234375H91.3939453125z" />
    <glyph glyph-name="calendar"
      unicode="&#xF116;"
      horiz-adv-x="300" d="M255.0474609375 -3H45.0474609375V162H255.0474609375V-3zM255.0474609375 237H240.0474609375V267H210.0474609375V237H90.0474609375V267H60.0474609375V237H45.0474609375C41.11658203125 237.00005859375 37.22455078125 236.2228125 33.59525390625 234.7128515625C29.96595703125 233.20294921875 26.67111328125 230.99015625 23.9002734375 228.2019140625C21.1294921875 225.413671875 18.9373828125 222.105 17.4502734375 218.466328125C15.96310546875 214.82765625 15.210234375 210.93076171875 15.2349609375 207V-3C15.23478515625 -10.92421875 18.36978515625 -18.526171875 23.9553515625 -24.1470703125C29.5409765625 -29.76796875 37.12353515625 -32.9501953125 45.0474609375 -33H255.0474609375C263.00390625 -33 270.6345703125 -29.839453125 276.2607421875 -24.21328125C281.8869140625 -18.587109375 285.0474609375 -10.9564453125 285.0474609375 -3V207C285.0474609375 214.95650390625 281.8869140625 222.587109375 276.2607421875 228.21322265625C270.6345703125 233.83927734375 263.00390625 237 255.0474609375 237V237zM225.0474609375 132H195.0474609375V102H225.0474609375V132zM165.0474609375 132H135.0474609375V102H165.0474609375V132zM105.0474609375 132H75.0474609375V102H105.0474609375V132z" />
    <glyph glyph-name="camera"
      unicode="&#xF117;"
      horiz-adv-x="300" d="M148.1478515625 25.25390625C188.888671875 25.25390625 224.07421875 58.5873046875 224.07421875 101.1796875C224.07421875 143.7720703125 188.888671875 175.25390625 148.1478515625 175.25390625C107.4076171875 175.25390625 72.2220703125 141.9205078125 72.2220703125 99.328125C72.2220703125 56.73515625 107.4076171875 25.25390625 148.1478515625 25.25390625zM103.70390625 251.1796875H194.44453125L222.2220703125 221.55005859375H270.3703125C287.0373046875 221.55005859375 300 208.5870703125 300 191.9203125V12.290625C300 -4.37578125 287.0373046875 -17.3390625 270.3703125 -17.3390625H29.62962890625C12.96298828125 -17.3390625 0 -4.37578125 0 12.290625V191.9203125C0 208.5870703125 12.96298828125 221.55005859375 29.62962890625 221.55005859375H77.7779296875L103.70390625 251.1796875zM196.29609375 101.1796875C196.29609375 69.6984375 179.6296875 53.0314453125 148.1478515625 53.0314453125C116.6666015625 53.0314453125 100.0001953125 69.6984375 100.0001953125 101.1796875C100.0001953125 132.6609375 116.6666015625 149.3279296875 148.1478515625 149.3279296875C179.6296875 149.3279296875 196.29609375 132.6609375 196.29609375 101.1796875z" />
    <glyph glyph-name="cancel"
      unicode="&#xF118;"
      horiz-adv-x="300" d="M150 241.8046875Q201.5625 241.8046875 238.18359375 205.18359375T274.8046875 117T238.18359375 28.81640625T150 -7.8046875T61.81640625 28.81640625T25.1953125 117T61.81640625 205.18359375T150 241.8046875zM150 217.1953125Q108.3984375 217.1953125 79.1015625 187.8984375T49.8046875 117Q49.8046875 83.015625 70.8984375 55.4765625L211.5234375 196.1015625Q183.984375 217.1953125 150 217.1953125zM150 16.8046875Q191.6015625 16.8046875 220.8984375 46.1015625T250.1953125 117Q250.1953125 150.984375 229.1015625 178.5234375L88.4765625 37.8984375Q116.015625 16.8046875 150 16.8046875z" />
    <glyph glyph-name="category"
      unicode="&#xF119;"
      horiz-adv-x="300" d="M68.84765625 154.5Q76.7578125 154.5 82.03125 160.06640625T87.3046875 173.25T82.03125 186.43359375T68.84765625 192T55.37109375 186.43359375T49.8046875 173.25T55.37109375 160.06640625T68.84765625 154.5zM217.3828125 122.2734375Q225 114.65625 225 104.40234375T217.3828125 87.1171875L155.2734375 24.421875Q147.65625 16.8046875 137.6953125 16.8046875Q127.1484375 16.8046875 119.53125 24.421875L32.2265625 111.7265625Q25.1953125 119.34375 25.1953125 129.3046875V192Q25.1953125 202.546875 32.51953125 209.87109375T49.8046875 217.1953125H112.5Q123.046875 217.1953125 130.078125 209.578125zM169.3359375 195.515625L181.640625 208.40625L267.7734375 122.2734375Q274.8046875 115.2421875 274.8046875 104.6953125T267.7734375 87.1171875L200.390625 19.734375L188.0859375 32.0390625L259.5703125 104.6953125z" />
    <glyph glyph-name="certificate"
      unicode="&#xF11A;"
      horiz-adv-x="300" d="M0 267H226.2252V215.68452C240.2232 213.31272 253.2678 207.03852 263.8578 197.5836C274.4502 188.1288 282.1578 175.8768 286.095 162.237C290.0352 148.5966 290.0424 134.1216 286.1226 120.477C282.2022 106.8318 274.5078 94.5702 263.9298 85.1016V-32.9874L244.3866 -19.9548L213.657 0.5322L182.928 -19.9548L163.3848 -33V15.6378H0V267zM163.3848 40.7748V85.1148C152.8068 94.5834 145.113 106.845 141.192 120.4902C137.2716 134.1348 137.28 148.6098 141.2184 162.2496C145.1568 175.89 152.865 188.1414 163.4568 197.5962C174.0468 207.05124 187.092 213.32526 201.09 215.69724V241.85124H25.13628V40.7616H163.3848V40.7748zM188.5218 70.197V13.9926L206.682 26.0952L213.657 30.7452L220.6332 26.0952L238.7934 14.0052V70.1832C230.718 67.3398 222.2184 65.895 213.657 65.91C205.0968 65.8998 196.5948 67.3482 188.5218 70.197zM213.657 191.5914C200.325 191.5914 187.5366 186.2952 178.11 176.8674C168.6816 167.439 163.3848 154.6524 163.3848 141.3198C163.3848 127.9866 168.6816 115.2 178.11 105.7716C187.5366 96.3432 200.325 91.047 213.657 91.047C226.9902 91.047 239.7768 96.3432 249.2052 105.7716C258.6324 115.2 263.9298 127.9866 263.9298 141.3198C263.9298 154.6524 258.6324 167.439 249.2052 176.8674C239.7768 186.2952 226.9902 191.5914 213.657 191.5914zM125.6802 153.8874H50.27226V179.0232H125.6802V153.8874zM50.27226 116.1834H113.1126V141.3198H50.27226V116.1834zM75.4086 78.4782H50.27226V103.6152H75.4086V78.4782zM50.27226 191.5914H75.4086V216.72774H50.27226V191.5914z" />
    <glyph glyph-name="change"
      unicode="&#xF11B;"
      horiz-adv-x="300" d="M68.18203125 116.893359375C68.18203125 161.893359375 105 198.7119140625 150 198.7119140625C163.6365234375 198.7119140625 177.2724609375 195.984375 188.18203125 189.16640625L208.6365234375 209.62072265625C190.908984375 219.166171875 171.81796875 225.984375 150 225.984375C90 225.984375 40.9091015625 176.893359375 40.9091015625 116.893359375H0L54.54544921875 62.3478515625L109.091015625 116.893359375H68.18203125zM245.4544921875 171.4388671875L190.908984375 116.893359375H231.81796875C231.81796875 71.893359375 195 35.075390625 150 35.075390625C136.3634765625 35.075390625 122.7275390625 37.80234375 111.81796875 44.6208984375L91.3634765625 24.16640625C109.091015625 14.6208984375 128.18203125 7.80234375 150 7.80234375C210 7.80234375 259.091015625 56.893359375 259.091015625 116.893359375H300L245.4544921875 171.4388671875z" />
    <glyph glyph-name="chart-horizontal"
      unicode="&#xF11C;"
      horiz-adv-x="300" d="M37.50005859375 267H25.00001953125V-33H37.50005859375V267zM68.3431640625 215.55498046875V167.6220703125C68.3431640625 166.1244140625 69.84140625 164.626171875 71.3390625 164.626171875L267.5642578125 164.626171875C270.56015625 164.626171875 272.0583984375 166.1244140625 272.0583984375 169.1197265625V215.55498046875C272.0583984375 217.0529296875 270.56015625 220.0487109375 267.5642578125 220.0487109375L71.3390625 220.0487109375C69.84140625 220.0487109375 68.3431640625 218.5508203125 68.3431640625 215.55498046875zM68.3431640625 88.2328125V136.166015625C68.3431640625 137.663671875 69.84140625 139.161328125 71.3390625 140.6595703125L71.3390625 140.6595703125L204.652734375 140.6595703125C207.648046875 140.6595703125 209.1462890625 137.663671875 209.1462890625 136.166015625V88.2328125C209.1462890625 85.2369140625 207.648046875 83.7392578125 204.652734375 83.7392578125H72.8373046875C69.84140625 83.7392578125 68.3431640625 85.2369140625 68.3431640625 88.2328125zM68.3419921875 7.3458984375L68.3419921875 55.2791015625C68.3419921875 58.275 69.840234375 59.77265625 71.337890625 59.77265625H156.718359375C159.7142578125 59.77265625 161.2119140625 56.7767578125 161.2119140625 55.2791015625V7.3458984375C161.2119140625 5.8482421875 159.7142578125 2.85234375 156.718359375 2.85234375H72.8361328125C69.840234375 2.85234375 68.3419921875 4.35 68.3419921875 7.3458984375z" />
    <glyph glyph-name="chart"
      unicode="&#xF11D;"
      horiz-adv-x="300" d="M231.75 64.9171875L300 182.9671875V7.6171875V-22.3828125H0V247.6171875H30V59.5171875L112.5 202.6171875L210 145.9171875L273.6 255.8671875L299.55 240.8671875L221.1 105.1171875L123.45 161.3671875L34.65 7.6171875H68.55L134.4 121.0171875L231.75 64.9171875z" />
    <glyph glyph-name="check-all"
      unicode="&#xF11E;"
      horiz-adv-x="300" d="M0 102.68671875L72.12890625 30.5572265625L90.3228515625 48.880078125L18.32255859375 120.880078125L0 102.68671875zM281.6771484375 203.71875L145.161328125 67.0734375L91.48359375 120.880078125L73.032421875 102.68671875L145.161328125 30.5572265625L300 185.3958984375L281.6771484375 203.71875zM226.967578125 185.3958984375L208.77421875 203.71875L126.8384765625 121.7830078125L145.161328125 103.5896484375L226.967578125 185.3958984375z" />
    <glyph glyph-name="check-circle"
      unicode="&#xF11F;"
      horiz-adv-x="300" d="M150 267C232.8 267 300 199.8 300 117C300 34.2 232.8 -33 150 -33C67.2 -33 0 34.2 0 117C0 199.8 67.2 267 150 267zM150 237C83.7 237 30 183.3 30 117C30 50.7 83.7 -3 150 -3C216.3 -3 270 50.7 270 117C270 183.3 216.3 237 150 237zM135 49.5L67.5 117L88.65 138.15L135 91.95L218.85 175.65L240 154.5L135 49.5z" />
    <glyph glyph-name="check-list"
      unicode="&#xF120;"
      horiz-adv-x="300" d="M270 267H30C13.5 267 0 253.5 0 237V-33L60 27H270C286.5 27 300 40.5 300 57V237C300 253.5 286.5 267 270 267zM240 87H60V117H240V87zM240 132H60V162H240V132zM240 177H60V207H240V177z" />
    <glyph glyph-name="check-simulation"
      unicode="&#xF121;"
      horiz-adv-x="300" d="M300 133.66640625V0.3333984375C300 -18 285 -33 266.6666015625 -33H33.33333984375C15 -33 0 -18 0 0.3333984375V233.66666015625C0 252 15 267 33.33333984375 267H199.9998046875V233.66666015625H33.33333984375V0.3333984375H266.6666015625V133.66640625H300zM300 217.00013671875L133.33359375 50.333203125L58.33359375 125.333203125L81.666796875 148.6669921875L133.33359375 97.0001953125L276.666796875 240.33345703125L300 217.00013671875z" />
    <glyph glyph-name="check"
      unicode="&#xF122;"
      horiz-adv-x="300" d="M276 232.4296875L94.5 49.4296875L24 119.9296875L0 95.9296875L94.5 1.4296875L300 208.4296875L276 232.4296875z" />
    <glyph glyph-name="chevron-left-small"
      unicode="&#xF123;"
      horiz-adv-x="300" d="M300 135.75H71.8125L176.625 240.5625L150 267L0 117L150 -33L176.4375 -6.5625L71.8125 98.25H300V135.75z" />
    <glyph glyph-name="chevron-left"
      unicode="&#xF124;"
      horiz-adv-x="300" d="M300 131.90625H63L123 187.40625L99 208.40625L0 116.90625L100.5 25.40625L124.5 46.40625L64.5 101.90625H300V131.90625z" />
    <glyph glyph-name="chevron-right"
      unicode="&#xF125;"
      horiz-adv-x="300" d="M0 101.90625H237L177 46.40625L201 25.40625L300 116.90625L199.5 208.40625L175.5 187.40625L235.5 131.90625H0V101.90625z" />
    <glyph glyph-name="city"
      unicode="&#xF126;"
      horiz-adv-x="300" d="M260.248828125 61.73671875H228.6697265625V93.3158203125H260.248828125V61.73671875zM260.248828125 -1.4208984375H228.6697265625V30.1576171875H260.248828125V-1.4208984375zM165.512109375 188.0525390625H133.9330078125V219.63158203125H165.512109375V188.0525390625zM165.512109375 124.894921875H133.9330078125V156.4734375H165.512109375V124.894921875zM165.512109375 61.73671875H133.9330078125V93.3158203125H165.512109375V61.73671875zM165.512109375 -1.4208984375H133.9330078125V30.1576171875H165.512109375V-1.4208984375zM70.7748046875 124.894921875H39.19611328125V156.4734375H70.7748046875V124.894921875zM70.7748046875 61.73671875H39.19611328125V93.3158203125H70.7748046875V61.73671875zM70.7748046875 -1.4208984375H39.19611328125V30.1576171875H70.7748046875V-1.4208984375zM197.090625 124.894921875V219.63158203125L149.722265625 267L102.35390625 219.63158203125V188.0525390625H7.6171875V-33H291.8279296875V124.894921875H197.090625z" />
    <glyph glyph-name="clear"
      unicode="&#xF127;"
      horiz-adv-x="300" d="M300 200.203125H66.666796875V166.8697265625H300V200.203125zM266.6654296875 133.536328125H33.33275390625V100.2029296875H266.6654296875V133.536328125zM0 66.8701171875H233.333203125V33.53671875H0V66.8701171875z" />
    <glyph glyph-name="clock"
      unicode="&#xF128;"
      horiz-adv-x="300" d="M150 -3C93 -3 45 43.5 45 100.5C45 157.5 93 204 150 204C207 204 255 157.5 255 100.5C255 43.5 207 -3 150 -3zM150 235.5C75 235.5 15 175.5 15 102C15 27 75 -33 150 -33C225 -33 285 27 285 100.5C285 175.5 225 235.5 150 235.5zM157.5 175.5H135V85.5L207 43.5L219 63L159 97.5L157.5 175.5zM88.5 244.5L69 267L0 210L19.5 187.5L88.5 244.5zM300 210L231 267L211.5 244.5L280.5 187.5L300 210z" />
    <glyph glyph-name="close"
      unicode="&#xF129;"
      horiz-adv-x="300" d="M300 237L270 267L150 147L30 267L0 237L120 117L0 -3L30 -33L150 87L270 -33L300 -3L180 117L300 237z" />
    <glyph glyph-name="code"
      unicode="&#xF12A;"
      horiz-adv-x="300" d="M49.8046875 192H75V42H49.8046875V192zM87.3046875 192H100.1953125V42H87.3046875V192zM112.5 192H150V42H112.5V192zM162.3046875 192H175.1953125V42H162.3046875V192zM199.8046875 192H225V42H199.8046875V192zM237.3046875 192H250.1953125V42H237.3046875V192zM25.1953125 217.1953125V166.8046875H0V217.1953125Q0 221.8828125 2.05078125 226.5703125T7.32421875 234.7734375T15.234375 240.046875T25.1953125 241.8046875H75V217.1953125H25.1953125zM274.8046875 241.8046875Q285.3515625 241.8046875 292.67578125 234.48046875T300 217.1953125V166.8046875H274.8046875V217.1953125H225V241.8046875H274.8046875zM25.1953125 67.1953125V16.8046875H75V-7.8046875H25.1953125Q14.6484375 -7.8046875 7.32421875 -0.48046875T0 16.8046875V67.1953125H25.1953125zM274.8046875 16.8046875V67.1953125H300V16.8046875Q300 10.359375 296.77734375 4.5T287.6953125 -4.58203125T274.8046875 -7.8046875H225V16.8046875H274.8046875z" />
    <glyph glyph-name="college"
      unicode="&#xF12B;"
      horiz-adv-x="300" d="M231.802734375 176.0865234375L231.805078125 176.0876953125C242.4099609375 179.743359375 253.1173828125 183.434765625 263.9537109375 187.255078125C264.240234375 185.53828125 264.5689453125 183.929296875 264.882421875 182.3958984375C265.608984375 178.8451171875 266.253515625 175.6986328125 266.0876953125 172.5515625C265.89140625 169.83984375 265.707421875 167.1287109375 265.5251953125 164.41875V164.417578125H265.5240234375V164.41640625C264.6011718750001 150.7716796875 263.680078125 137.152734375 261.1078125 123.6990234375C258.3703125 109.0951171875 264.9052734375 99.12890625 271.5210937500001 89.040234375C273.4998046875 86.02265625 275.4861328125 82.9939453125 277.2339843750001 79.8263671875C296.9173828125 97.3751953125 297.6287109375 118.719140625 295.0201171875 140.5365234375C293.5412109375 153.0251953125 291.26484375 165.4001953125 288.9814453125 177.819140625L288.9802734375 177.8203125V177.82265625C287.9689453125 183.3251953125 286.9552734375 188.8359375 286.008984375 194.36953125C286.6013671875 194.2505859375 287.13515625 194.073046875 287.6689453125 193.894921875C288.2009765625 193.7173828125 288.734765625 193.5392578125 289.32890625 193.4208984375L300 208.3611328125C298.4701171875 209.40439453125 296.96015625 210.5701171875 295.44609375 211.7384765625V211.73888671875C291.7998046875 214.554140625 288.13359375 217.385390625 284.1111328125 218.55849609375C243.7962890625 230.41587890625 203.2435546875 242.27337890625 162.453515625 253.18224609375C154.627734375 255.31646484375 145.3787109375 255.07939453125 137.3162109375 253.18224609375C118.316015625 248.30625 99.5560546875 242.83423828125 80.7802734375 237.35771484375C73.0728515625 235.11 65.363671875 232.8615234375 57.63427734375 230.653125C53.01515625 229.34314453125 48.3760546875 228.073359375 43.73431640625 226.80287109375L43.7340234375 226.80275390625C32.40919921875 223.70296875 21.0690234375 220.5990234375 9.96744140625 216.8984765625C5.93595703125 215.47564453125 0.2444279296875 210.9697265625 0.00717796875 207.4125C-0.191197265625 204.63515625 3.76030078125 201.3591796875 7.13982421875 198.5578125C7.7996484375 198.010546875 8.43779296875 197.4814453125 9.01880859375 196.978125C10.172578125 195.9890625 11.89904296875 195.573046875 13.5612890625 195.172265625H13.56140625C14.2908984375 194.996484375 15.00802734375 194.8236328125 15.6590625 194.60625C24.2783203125 191.5921875 32.909296875 188.58984375 41.54431640625 185.586328125L41.5475390625 185.58515625L41.5490625 185.5845703125L41.54982421875 185.5845703125L41.55041015625 185.5845703125C71.6390625 175.1173828125 101.775 164.6349609375 131.625 153.580078125C144.1939453125 148.836328125 155.340234375 148.6001953125 167.90859375 153.3427734375C188.921484375 161.3015625 210.14765625 168.619921875 231.802734375 176.0865234375zM133.9962890625 212.15548828125C143.007421875 201.9580078125 156.525 201.9580078125 165.7740234375 212.15548828125C156.0515625 221.1671484375 143.71875 221.1671484375 133.9962890625 212.15548828125zM80.4451171875 148.36640625H80.4439453125L80.441015625 148.367578125C72.55078125 151.269140625 64.56796875 154.20234375 56.4476953125 157.1361328125C56.4476953125 153.188671875 56.48806640625 149.361328125 56.52767578125 145.6201171875V145.6189453125C56.62353515625 136.552734375 56.7140625 127.9916015625 56.21044921875 119.4298828125C55.9733203125 115.87265625 53.83904296875 111.3673828125 50.99314453125 108.994921875C29.17552734375 90.7353515625 27.51556640625 60.3802734375 50.5189453125 42.594140625C61.4115234375 34.215234375 68.4181640625 24.1716796875 75.788671875 13.606640625L75.78984375 13.6037109375C76.763671875 12.2091796875 77.7439453125 10.8041015625 78.7400390625 9.392578125C97.948828125 -17.6408203125 123.7974609375 -37.0875 158.42109375 -32.1076171875C189.4875 -27.60234375 212.7287109375 -8.15625 227.90625 20.0654296875C230.7509765625 25.51875 235.257421875 30.973828125 240.2373046875 34.29375C266.0865234375 51.369140625 275.098828125 81.7236328125 255.41484375 100.4578125C243.43125 111.5548828125 243.284765625 122.8587890625 243.1212890625 135.5361328125C243.11015625 136.40625 243.0990234375 137.2828125 243.0837890625 138.165234375V157.1361328125C234.9626953125 154.20234375 226.9787109375 151.2673828125 219.0873046875 148.36640625H219.0861328125C199.555078125 141.1875 180.5900390625 134.2166015625 161.5037109375 127.967578125C154.38984375 125.5962890625 145.14140625 125.5962890625 138.0263671875 127.967578125C118.9412109375 134.2166015625 99.97734375 141.1875 80.4474609375 148.365234375L80.4462890625 148.36640625H80.4451171875zM63.823828125 90.971484375C74.729296875 99.5115234375 75.092578125 99.7962890625 79.2140625 114.45C126.4060546875 103.5416015625 173.361328125 103.5416015625 222.451171875 115.161328125C221.977734375 101.4064453125 228.8548828125 95.00390625 238.57734375 88.3640625C250.4349609375 80.063671875 244.2685546875 58.9576171875 227.6689453125 52.3177734375C217.4712890625 48.2853515625 213.4400390625 41.8828125 209.644921875 32.6337890625C199.68515625 7.969921875 180.00234375 -6.02109375 154.8638671875 -11.476171875C133.046484375 -16.21875 99.6087890625 7.2591796875 90.359765625 32.1591796875C86.8025390625 41.8828125 82.7712890625 48.9978515625 71.8623046875 53.0291015625C58.10765625 58.2462890625 52.89041015625 71.0513671875 57.39615234375 82.4349609375C58.34478515625 85.2802734375 60.2419921875 88.126171875 62.61328125 90.0240234375L63.823828125 90.971484375zM110.2828125 92.3953125C119.53125 91.683984375 126.882421875 82.6716796875 125.9337890625 73.6599609375C124.98515625 64.648828125 116.92265625 58.2451171875 107.9115234375 58.9564453125C98.1873046875 59.6689453125 91.5474609375 67.494140625 92.733984375 77.455078125C93.4453125 86.22890625 101.5078125 93.106640625 110.2828125 92.3953125zM207.2736328125 74.6103515625C207.748828125 84.0966796875 200.159765625 92.15859375 190.911328125 92.396484375C181.9001953125 92.6337890625 173.5986328125 84.333984375 173.5986328125 75.3216796875C173.5986328125 66.5478515625 181.1876953125 59.194921875 190.2 58.9587890625C199.68515625 58.721484375 206.8001953125 65.361328125 207.2736328125 74.6103515625z" />
    <glyph glyph-name="columns-outline"
      unicode="&#xF12C;"
      horiz-adv-x="352.112676056338" d="M49.2957746478873 252.9154929577465H104.9295774647887A35.2112676056338 35.2112676056338 0 0 0 140.1408450704225 217.7042253521127V16.2957746478874A35.2112676056338 35.2112676056338 0 0 0 104.9295774647887 -18.9154929577464H49.2957746478873A35.2112676056338 35.2112676056338 0 0 0 14.0845070422535 16.2957746478874V217.7042253521127A35.2112676056338 35.2112676056338 0 0 0 49.2957746478873 252.9154929577465zM246.4788732394366 252.9154929577465H302.8169014084507A35.2112676056338 35.2112676056338 0 0 0 338.0281690140845 217.7042253521127V16.2957746478874A35.2112676056338 35.2112676056338 0 0 0 302.8169014084507 -18.9154929577464H246.4788732394366A35.2112676056338 35.2112676056338 0 0 0 211.2676056338028 16.2957746478874V217.7042253521127A35.2112676056338 35.2112676056338 0 0 0 246.4788732394366 252.9154929577465z" />
    <glyph glyph-name="columns"
      unicode="&#xF12D;"
      horiz-adv-x="300" d="M42 244.8H89.4A42 42 0 0 0 131.4 202.8V31.2A42 42 0 0 0 89.4 -10.8H42A42 42 0 0 0 0 31.2V202.8A42 42 0 0 0 42 244.8zM210 244.8H258A42 42 0 0 0 300 202.8V31.2A42 42 0 0 0 258 -10.8H210A42 42 0 0 0 168 31.2V202.8A42 42 0 0 0 210 244.8z" />
    <glyph glyph-name="comment-alert"
      unicode="&#xF12E;"
      horiz-adv-x="300" d="M105 -33C96.75 -33 90 -26.25 90 -18V27H30C13.5 27 0 40.5 0 57V237C0 253.65 13.5 267 30 267H270C286.5 267 300 253.5 300 237V57C300 40.5 286.5 27 270 27H178.5L123 -28.65C120 -31.5 116.25 -33 112.5 -33H105zM165 147V207H135V147H165zM165 87V117H135V87H165z" />
    <glyph glyph-name="comments"
      unicode="&#xF12F;"
      horiz-adv-x="300" d="M231.4453125 218.3671875Q239.6484375 217.1953125 245.5078125 211.3359375T251.3671875 198.4453125V78.328125Q251.3671875 69.5390625 245.5078125 63.97265625T231.4453125 58.40625H93.75L55.078125 17.9765625V198.4453125Q55.078125 206.6484375 60.9375 212.5078125T75 218.3671875H231.4453125zM94.921875 148.0546875V128.1328125H212.6953125V148.0546875H94.921875zM172.265625 98.25V118.171875H93.75V98.25H172.265625zM212.6953125 158.015625V178.5234375H94.921875V158.015625H212.6953125z" />
    <glyph glyph-name="computer"
      unicode="&#xF130;"
      horiz-adv-x="300" d="M231.4453125 208.40625Q238.4765625 208.40625 244.3359375 202.83984375T250.1953125 189.65625V80.671875Q250.1953125 73.0546875 244.3359375 67.48828125T231.4453125 61.921875H167.578125V43.171875H186.328125V24.421875H113.671875V43.171875H132.421875V61.921875H68.5546875Q61.5234375 61.921875 55.6640625 67.48828125T49.8046875 80.671875V189.65625Q49.8046875 197.2734375 55.6640625 202.83984375T68.5546875 208.40625H231.4453125zM231.4453125 80.671875H232.6171875V189.65625H68.5546875V80.671875H231.4453125z" />
    <glyph glyph-name="content-outline"
      unicode="&#xF131;"
      horiz-adv-x="300" d="M38.12748 224.74998V190.0002L38.0025 9.375C38.0025 -1.2498 46.6275 -9.8748 57.25248 -9.8748H241.8774C252.5022 -9.8748 261.1272 -1.2498 261.1272 9.375V167.1252H211.1274C196.2522 167.1252 184.2522 179.1252 184.2522 193.9998V244.00002H57.37752C46.75248 244.00002 38.12748 235.37502 38.12748 224.74998zM57.37752 267H198.5022C209.7522 267 220.5024 262.5 228.3774 254.625L271.8774 211.125C279.7524 203.25 284.2524 192.375 284.2524 181.2498V167.1252V148.2498V9.375C284.2524 -13.9998 265.3776 -32.8751999999999 242.0022 -32.8751999999999H57.25248C33.8775 -32.8751999999999 15.00252 -13.9998 15.00252 9.375V224.74998C15.00252 248.12502 33.8775 267 57.25248 267H57.37752zM207.3774 193.875C207.3774 191.7498 209.1276 190.0002 211.2522 190.0002H259.1274C258.1272 191.7498 257.0022 193.3752 255.6276 194.7498L212.1276 238.24998C210.6276 239.74998 209.1276 240.87498 207.3774 241.75002V193.875zM76.6272 101.625C76.6272 108 81.7524 113.1252 88.1274 113.1252H211.2522C217.6272 113.1252 222.7524 108 222.7524 101.625C222.7524 95.25 217.6272 90.1248 211.2522 90.1248H88.1274C81.7524 90.1248 76.6272 95.25 76.6272 101.625zM76.6272 40.125C76.6272 46.5 81.7524 51.6252 88.1274 51.6252H211.2522C217.6272 51.6252 222.7524 46.5 222.7524 40.125C222.7524 33.75 217.6272 28.6248 211.2522 28.6248H88.1274C81.7524 28.6248 76.6272 33.75 76.6272 40.125zM88.1274 174.75C81.7524 174.75 76.6272 169.6248 76.6272 163.2498C76.6272 156.8748 81.7524 151.7502 88.1274 151.7502H134.2524C140.6274 151.7502 145.7526 156.8748 145.7526 163.2498C145.7526 169.6248 140.6274 174.75 134.2524 174.75H88.1274z" />
    <glyph glyph-name="content"
      unicode="&#xF132;"
      horiz-adv-x="300" d="M49.27916015625 267H208.2978515625L264.61640625 209.9448046875V-21.2208984375C264.61640625 -27.8466796875 259.0951171875 -33 252.8373046875 -33H49.27916015625C42.65337890625 -33 37.5 -27.4787109375 37.5 -21.2208984375V255.22083984375C37.5 261.846626953125 43.02146484375 267 49.27916015625 267zM248.7884765625 204.7916015625L206.0888671875 248.2269140625V204.7916015625H248.7884765625zM208.2515625 91.9998046875H82.36171875C78.312890625 91.9998046875 75 88.6869140625 75 84.6380859375C75 80.588671875 78.312890625 77.27578125 82.36171875 77.27578125H208.2515625C212.300390625 77.27578125 215.61328125 80.588671875 215.61328125 84.6380859375C215.61328125 88.6869140625 212.300390625 91.9998046875 208.2515625 91.9998046875zM82.36171875 129.4998046875H208.2515625C212.300390625 129.4998046875 215.61328125 126.1869140625 215.61328125 122.1380859375C215.61328125 118.088671875 212.300390625 114.77578125 208.2515625 114.77578125H82.36171875C78.312890625 114.77578125 75 118.088671875 75 122.1380859375C75 126.1869140625 78.312890625 129.4998046875 82.36171875 129.4998046875zM208.2515625 166.9998046875H82.36171875C78.312890625 166.9998046875 75 163.6869140625 75 159.6380859375C75 155.588671875 78.312890625 152.2763671875 82.36171875 152.2763671875H208.2515625C212.300390625 152.2763671875 215.61328125 155.588671875 215.61328125 159.6380859375C215.61328125 163.6869140625 212.300390625 166.9998046875 208.2515625 166.9998046875zM52.22396484375 -17.9080078125H249.5244140625V190.0669921875H191.36484375V252.275859375H52.22396484375V-17.9080078125zM167.7609375 54.4998046875H82.36171875C78.312890625 54.4998046875 75 51.1869140625 75 47.1380859375C75 43.088671875 78.312890625 39.77578125 82.36171875 39.77578125H167.7609375C171.809765625 39.77578125 175.12265625 43.088671875 175.12265625 47.1380859375C175.12265625 51.1869140625 171.809765625 54.4998046875 167.7609375 54.4998046875zM81.43359375 204.4998046875H156.0662109375C159.6046875 204.4998046875 162.4998046875 201.6873046875 162.4998046875 198.2501953125C162.4998046875 194.8125 159.6046875 192 156.0662109375 192H81.43359375C77.8951171875 192 75 194.8125 75 198.2501953125C75 201.6873046875 77.8951171875 204.4998046875 81.43359375 204.4998046875z" />
    <glyph glyph-name="copy"
      unicode="&#xF133;"
      horiz-adv-x="300" d="M195.9287109375 267C215.04609375 267 230.544140625 251.5021875 230.544140625 232.38462890625L230.5265625 220.85625L242.082421875 220.846171875C261.1998046875 220.846171875 276.6978515625 205.3482421875 276.6978515625 186.230859375V1.6154296875C276.6978515625 -17.501953125 261.1998046875 -33 242.082421875 -33H103.620703125C84.5033203125 -33 69.0052734375 -17.501953125 69.0052734375 1.6154296875L68.9953125 13.1625L57.46693359375 13.1537109375C38.349375 13.1537109375 22.8515625 28.6517578125 22.8515625 47.769140625V232.38462890625C22.8515625 251.5021875 38.349375 267 57.46693359375 267H195.9287109375zM242.082421875 197.769140625H103.620703125C97.248046875 197.769140625 92.082421875 192.603515625 92.082421875 186.230859375V1.6154296875C92.082421875 -4.7572265625 97.248046875 -9.9228515625 103.620703125 -9.9228515625H242.082421875C248.455078125 -9.9228515625 253.620703125 -4.7572265625 253.620703125 1.6154296875V186.230859375C253.620703125 192.603515625 248.455078125 197.769140625 242.082421875 197.769140625zM195.9287109375 243.9230859375H57.46693359375C51.094453125 243.9230859375 45.9284765625 238.757109375 45.9284765625 232.38462890625V47.769140625C45.9284765625 41.396484375 51.094453125 36.230859375 57.46693359375 36.230859375L68.9953125 36.24375L69.0052734375 186.230859375C69.0052734375 205.3482421875 84.5033203125 220.846171875 103.620703125 220.846171875L207.4640625 220.85625L207.4669921875 232.38462890625C207.4669921875 238.757109375 202.30078125 243.9230859375 195.9287109375 243.9230859375zM172.8515625 70.8462890625C179.22421875 70.8462890625 184.38984375 65.680078125 184.38984375 59.307421875C184.38984375 52.9353515625 179.22421875 47.769140625 172.8515625 47.769140625H126.6978515625C120.3251953125 47.769140625 115.158984375 52.9353515625 115.158984375 59.307421875C115.158984375 65.680078125 120.3251953125 70.8462890625 126.6978515625 70.8462890625H172.8515625zM219.0052734375 117C225.3779296875 117 230.544140625 111.8337890625 230.544140625 105.46171875C230.544140625 99.0890625 225.3779296875 93.9228515625 219.0052734375 93.9228515625H126.6978515625C120.3251953125 93.9228515625 115.158984375 99.0890625 115.158984375 105.46171875C115.158984375 111.8337890625 120.3251953125 117 126.6978515625 117H219.0052734375zM219.0052734375 163.1537109375C225.3779296875 163.1537109375 230.544140625 157.9880859375 230.544140625 151.6154296875C230.544140625 145.2427734375 225.3779296875 140.0771484375 219.0052734375 140.0771484375H126.6978515625C120.3251953125 140.0771484375 115.158984375 145.2427734375 115.158984375 151.6154296875C115.158984375 157.9880859375 120.3251953125 163.1537109375 126.6978515625 163.1537109375H219.0052734375z" />
    <glyph glyph-name="course"
      unicode="&#xF134;"
      horiz-adv-x="300" d="M250.1953125 42H300V16.8046875H0V42H49.8046875Q39.84375 42 32.51953125 49.32421875T25.1953125 67.1953125V192Q25.1953125 202.546875 32.51953125 209.87109375T49.8046875 217.1953125H250.1953125Q254.8828125 217.1953125 259.5703125 215.14453125T267.7734375 209.578125T273.046875 201.66796875T274.8046875 192V67.1953125Q274.8046875 56.6484375 267.48046875 49.32421875T250.1953125 42zM49.8046875 192V67.1953125H250.1953125V192H49.8046875z" />
    <glyph glyph-name="credit-card"
      unicode="&#xF135;"
      horiz-adv-x="300" d="M150 223.0546875C191.25 223.0546875 232.5 223.0546875 273.75 223.0546875C285 223.0546875 292.5 217.4296875 298.125 208.0546875C300 204.3046875 300 200.5546875 300 196.8046875C300 174.3046875 300 153.6796875 300 131.1796875C300 101.1796875 300 71.1796875 300 39.3046875C300 29.9296875 296.25 22.4296875 290.625 16.8046875C285 13.0546875 279.375 11.1796875 273.75 11.1796875C245.625 11.1796875 217.5 11.1796875 187.5 11.1796875C135 11.1796875 80.625 11.1796875 28.125 11.1796875C15 11.1796875 5.625 18.6796875 1.875 28.0546875C-0.0000018160781 31.8046875 0 35.5546875 0 39.3046875C0 56.1796875 0 73.0546875 0 89.9296875C0 125.5546875 0 161.1796875 0 196.8046875C0 208.0546875 3.749994140625 215.5546875 13.125 221.1796875C18.75 223.0546875 22.5 223.0546875 28.125 223.0546875C67.5 223.0546875 106.875 223.0546875 146.25 223.0546875C148.125 223.0546875 148.125 223.0546875 150 223.0546875zM150 127.4296875C106.875 127.4296875 65.625 127.4296875 22.5 127.4296875C20.625 127.4296875 20.625 127.4296875 20.625 125.5546875C20.625 97.4296875 20.625 69.3046875 20.625 39.3046875C20.625 35.5546875 22.5 31.8046875 28.125 31.8046875C110.625 31.8046875 191.25 31.8046875 273.75 31.8046875C277.5 31.8046875 281.25 33.6796875 281.25 39.3046875C281.25 67.4296875 281.25 95.5546875 281.25 123.6796875C281.25 125.5546875 281.25 125.5546875 279.375 125.5546875C234.375 127.4296875 193.125 127.4296875 150 127.4296875zM150 172.4296875C193.125 172.4296875 234.375 172.4296875 277.5 172.4296875C279.375 172.4296875 279.375 172.4296875 279.375 174.3046875C279.375 181.8046875 279.375 187.4296875 279.375 194.9296875C279.375 200.5546875 277.5 202.4296875 271.875 202.4296875C219.375 202.4296875 166.875 202.4296875 114.375 202.4296875C86.25 202.4296875 56.25 202.4296875 28.125 202.4296875C22.5 202.4296875 20.625 200.5546875 20.625 194.9296875C20.625 187.4296875 20.625 181.8046875 20.625 174.3046875C20.625 172.4296875 20.625 170.5546875 24.375 170.5546875C65.625 172.4296875 106.875 172.4296875 150 172.4296875zM204.3755859375 76.8041015625C217.5005859375 76.8041015625 230.6255859375 76.8041015625 243.7505859375 76.8041015625C245.6255859375 76.8041015625 247.5005859375 76.8041015625 247.5005859375 74.9291015625C249.3755859375 73.0541015625 247.5005859375 69.3041015625 245.6255859375 69.3041015625H243.7505859375C219.3755859375 69.3041015625 193.1255859375 69.3041015625 168.7505859375 69.3041015625C166.8755859375 69.3041015625 165.0005859375 69.3041015625 163.1255859375 71.1791015625C161.2505859375 73.0541015625 163.1255859375 76.8041015625 166.8755859375 76.8041015625C178.1255859375 76.8041015625 189.3755859375 76.8041015625 204.3755859375 76.8041015625C202.5005859375 76.8041015625 202.5005859375 76.8041015625 204.3755859375 76.8041015625z" />
    <glyph glyph-name="custom"
      unicode="&#xF136;"
      horiz-adv-x="300" d="M79.5919921875 87.10546875C79.5919921875 64.14609375 61.224609375 47.3091796875 39.7959375 47.3091796875C18.36732421875 47.3091796875 0 65.6765625 0 87.10546875C0 108.5337890625 18.36732421875 126.901171875 39.7959375 126.901171875C61.224609375 126.901171875 79.5919921875 110.0642578125 79.5919921875 87.10546875zM39.7959375 25.880859375C30.61224609375 25.880859375 22.95919921875 27.411328125 15.30609375 32.0033203125V-7.79296875C15.30609375 -20.037890625 26.0204296875 -30.7517578125 38.26529296875 -30.7517578125H41.3265234375C53.5714453125 -30.7517578125 64.285546875 -20.037890625 64.285546875 -7.79296875V32.0033203125C56.63267578125 28.941796875 48.9795703125 25.880859375 39.7959375 25.880859375zM15.30609375 142.20703125V241.69705078125C15.30609375 253.94197265625 26.0204296875 264.65625 38.26529296875 264.65625H41.3265234375C53.5714453125 264.65625 64.285546875 253.94197265625 64.285546875 241.69705078125V142.20703125C58.16326171875 145.2685546875 52.04080078125 146.7990234375 44.38775390625 146.7990234375C42.85716796875 146.7990234375 41.3265234375 146.7990234375 39.7959375 146.7990234375C38.26529296875 146.7990234375 36.73470703125 146.7990234375 35.2040625 146.7990234375C27.551015625 146.7990234375 21.4285546875 145.2685546875 15.30609375 142.20703125zM189.795703125 163.6359375C189.795703125 140.6765625 171.4283203125 123.8396484375 150 123.8396484375C128.5716796875 123.8396484375 110.204296875 142.20703125 110.204296875 163.6359375C110.204296875 185.0642578125 128.5716796875 203.431640625 150 203.431640625C171.4283203125 203.431640625 189.795703125 186.5953125 189.795703125 163.6359375zM143.8775390625 224.8603125C145.4080078125 224.8603125 146.9384765625 224.8603125 148.46953125 224.8603125C150 224.8603125 151.53046875 224.8603125 153.0609375 224.8603125C160.714453125 224.8603125 166.8369140625 221.79908203125 174.48984375 220.26849609375V241.69705078125C174.48984375 253.94197265625 163.775390625 264.65625 151.53046875 264.65625H148.46953125C136.224609375 264.65625 125.51015625 253.94197265625 125.51015625 241.69705078125V218.7378515625C130.1021484375 221.79908203125 137.755078125 223.3297265625 143.8775390625 224.8603125zM148.46953125 103.941796875C139.285546875 103.941796875 131.6326171875 105.4728515625 123.9796875 110.0642578125V-6.2619140625C123.9796875 -18.5068359375 134.694140625 -29.2212890625 146.9384765625 -29.2212890625H150C162.244921875 -29.2212890625 172.959375 -18.5068359375 172.959375 -6.2619140625V110.0642578125C166.8369140625 105.4728515625 157.6529296875 103.941796875 148.46953125 103.941796875zM300 73.3294921875C300 50.370703125 281.6326171875 33.5337890625 260.204296875 33.5337890625C237.244921875 33.5337890625 220.4080078125 51.901171875 220.4080078125 73.3294921875C220.4080078125 94.7583984375 238.775390625 113.12578125 260.204296875 113.12578125C281.6326171875 114.65625 300 96.2888671875 300 73.3294921875zM260.204296875 134.5541015625C269.3876953125 134.5541015625 277.040625 133.0236328125 284.694140625 128.431640625V241.69705078125C284.694140625 253.94197265625 273.9796875 264.65625 261.734765625 264.65625H258.6732421875C246.4283203125 264.65625 235.714453125 253.94197265625 235.714453125 241.69705078125V128.431640625C241.8369140625 131.4931640625 251.0203125 134.5541015625 260.204296875 134.5541015625zM264.795703125 13.6359375C263.265234375 13.6359375 261.734765625 13.6359375 260.204296875 13.6359375C258.6732421875 13.6359375 257.1427734375 13.6359375 255.6123046875 13.6359375C247.959375 13.6359375 241.8369140625 16.696875 234.1833984375 18.2279296875V-7.79296875C234.1833984375 -20.037890625 244.8978515625 -30.7517578125 257.1427734375 -30.7517578125H260.204296875C272.44921875 -30.7517578125 283.1630859375 -20.037890625 283.1630859375 -7.79296875V18.2279296875C278.5716796875 15.16640625 272.44921875 13.6359375 264.795703125 13.6359375z" />
    <glyph glyph-name="dashboard-2"
      unicode="&#xF137;"
      horiz-adv-x="300" d="M37.45423828125 267C16.89375 267 0 250.10625 0 229.54576171875V167.06484375C0 146.5048828125 16.89375 129.488671875 37.45423828125 129.488671875H100.032421875C120.59296875 129.488671875 137.48671875 146.5048828125 137.48671875 167.06484375V229.54576171875C137.48671875 250.10625 120.59296875 267 100.032421875 267H37.45423828125zM199.967578125 267C179.40703125 267 162.51328125 250.10625 162.51328125 229.54576171875V167.06484375C162.51328125 146.5048828125 179.40703125 129.488671875 199.967578125 129.488671875H262.545703125C283.10625 129.488671875 300 146.5048828125 300 167.06484375V229.54576171875C300 250.10625 283.10625 267 262.545703125 267H199.967578125zM37.45423828125 241.9979296875H100.032421875C107.1744140625 241.9979296875 112.484765625 236.687578125 112.484765625 229.54576171875V167.06484375C112.484765625 159.9234375 107.1744140625 154.515234375 100.032421875 154.515234375H37.45423828125C30.312421875 154.515234375 25.00201171875 159.9234375 25.00201171875 167.06484375V229.54576171875C25.00201171875 236.687578125 30.312421875 241.9979296875 37.45423828125 241.9979296875zM199.967578125 241.9979296875H262.545703125C269.6876953125 241.9979296875 274.998046875 236.687578125 274.998046875 229.54576171875V167.06484375C274.998046875 159.9234375 269.6876953125 154.515234375 262.545703125 154.515234375H199.967578125C192.8255859375 154.515234375 187.515234375 159.9234375 187.515234375 167.06484375V229.54576171875C187.515234375 236.687578125 192.8255859375 241.9979296875 199.967578125 241.9979296875zM37.45423828125 104.48671875C16.89375 104.48671875 0 87.59296875 0 67.032421875V4.454296875C0 -16.10625 16.89375 -33 37.45423828125 -33H100.032421875C120.59296875 -33 137.48671875 -16.10625 137.48671875 4.454296875V67.032421875C137.48671875 87.59296875 120.59296875 104.48671875 100.032421875 104.48671875H37.45423828125zM199.967578125 104.48671875C179.40703125 104.48671875 162.51328125 87.59296875 162.51328125 67.032421875V4.454296875C162.51328125 -16.10625 179.40703125 -33 199.967578125 -33H262.545703125C283.10625 -33 300 -16.10625 300 4.454296875V67.032421875C300 87.59296875 283.10625 104.48671875 262.545703125 104.48671875H199.967578125zM37.45423828125 79.484765625H100.032421875C107.1744140625 79.484765625 112.484765625 74.1744140625 112.484765625 67.032421875V4.454296875C112.484765625 -2.6876953125 107.1744140625 -7.998046875 100.032421875 -7.998046875H37.45423828125C30.312421875 -7.998046875 25.00201171875 -2.6876953125 25.00201171875 4.454296875V67.032421875C25.00201171875 74.1744140625 30.312421875 79.484765625 37.45423828125 79.484765625zM199.967578125 79.484765625H262.545703125C269.6876953125 79.484765625 274.998046875 74.1744140625 274.998046875 67.032421875V4.454296875C274.998046875 -2.6876953125 269.6876953125 -7.998046875 262.545703125 -7.998046875H199.967578125C192.8255859375 -7.998046875 187.515234375 -2.6876953125 187.515234375 4.454296875V67.032421875C187.515234375 74.1744140625 192.8255859375 79.484765625 199.967578125 79.484765625z" />
    <glyph glyph-name="dashboard"
      unicode="&#xF138;"
      horiz-adv-x="300" d="M231.4453125 136.921875Q227.34375 136.921875 226.171875 138.09375L195.1171875 104.6953125Q195.1171875 104.109375 195.703125 102.05859375T196.2890625 99.421875Q196.2890625 90.046875 187.5 83.015625Q178.125 77.7421875 168.75 83.015625Q159.9609375 88.2890625 159.9609375 99.421875Q159.9609375 103.5234375 161.1328125 104.6953125L137.6953125 128.1328125Q133.59375 126.375 127.734375 128.1328125L86.1328125 85.9453125Q86.1328125 85.359375 86.71875 83.30859375T87.3046875 80.671875Q87.3046875 73.640625 81.73828125 68.3671875T68.5546875 63.09375T55.37109375 68.3671875T49.8046875 80.96484375T55.37109375 93.26953125T68.5546875 98.25Q72.65625 98.25 73.828125 97.078125L114.84375 139.265625Q114.84375 139.8515625 114.2578125 141.90234375T113.671875 144.5390625Q113.671875 153.9140625 122.4609375 160.9453125Q130.6640625 166.8046875 141.2109375 160.9453125Q150 155.671875 150 144.5390625Q150 141.0234375 148.828125 139.265625L172.265625 115.828125Q176.3671875 117.5859375 182.2265625 115.828125L215.0390625 148.0546875Q215.0390625 148.640625 214.74609375 149.8125T214.16015625 151.86328125T213.8671875 153.328125Q213.8671875 164.4609375 222.65625 169.734375Q232.03125 175.0078125 241.40625 169.734375Q250.1953125 164.4609375 250.1953125 153.328125Q250.1953125 146.296875 244.921875 141.609375T231.4453125 136.921875z" />
    <glyph glyph-name="delete"
      unicode="&#xF139;"
      horiz-adv-x="300" d="M209.9853515625 206.98359375H284.980078125C288.95859375 206.98359375 292.7736328125 205.4033203125 295.5861328125 202.590234375C298.39921875 199.777734375 299.9794921875 195.9626953125 299.9794921875 191.984765625C299.9794921875 188.00625 298.39921875 184.1912109375 295.5861328125 181.3787109375C292.7736328125 178.565625 288.95859375 176.9853515625 284.980078125 176.9853515625H269.98125V11.9970703125C269.98125 0.0626953125 265.2404296875 -11.382421875 256.8023437500001 -19.8205078125C248.363671875 -28.2591796875 236.9185546875 -33 224.984765625 -33H74.9947265625C63.0609375 -33 51.61576171875 -28.2591796875 43.17720703125 -19.8205078125C34.73865234375 -11.382421875 29.99794921875 0.0626953125 29.99794921875 11.9970703125V176.9853515625H14.9989453125C11.021015625 176.9853515625 7.20591796875 178.565625 4.393095703125 181.3787109375C1.580244140625 184.1912109375 0 188.00625 0 191.984765625C0 195.9626953125 1.580244140625 199.777734375 4.393095703125 202.590234375C7.20591796875 205.4033203125 11.021015625 206.98359375 14.9989453125 206.98359375H89.9935546875V232.03171875C90.345703125 241.63376953125 94.490625 250.70455078125 101.51953125 257.255625C108.5484375 263.80665234375 117.88828125 267.3034060546875 127.4912109375 266.97932484375H172.48828125C182.0912109375 267.3034060546875 191.4310546875 263.80665234375 198.4599609375 257.255625C205.4888671875 250.70455078125 209.6337890625 241.63376953125 209.9853515625 232.03171875V206.98359375zM127.4912109375 236.9813671875C123.1412109375 236.9813671875 119.991796875 234.43154296875 119.991796875 232.03171875V206.98359375H179.9876953125V232.03171875C179.9876953125 234.43154296875 176.8376953125 236.9813671875 172.48828125 236.9813671875H127.4912109375zM235.590234375 1.391015625C238.4033203125 4.2041015625 239.98359375 8.019140625 239.98359375 11.9970703125V176.9853515625H59.9958984375V11.9970703125C59.9958984375 8.019140625 61.576171875 4.2041015625 64.388671875 1.391015625C67.2017578125 -1.4220703125 71.016796875 -3.00234375 74.9947265625 -3.00234375H224.984765625C228.9626953125 -3.00234375 232.777734375 -1.4220703125 235.590234375 1.391015625zM115.606640625 46.3728515625C112.7935546875 43.559765625 108.978515625 41.9794921875 105 41.9794921875C101.0220703125 41.9794921875 97.2064453125 43.559765625 94.393359375 46.3728515625C91.5802734375 49.1859375 90 53.0009765625 90 56.9794921875V116.9794921875C90 120.957421875 91.5802734375 124.773046875 94.393359375 127.5861328125C97.2064453125 130.3986328125 101.0220703125 131.9794921875 105 131.9794921875C108.978515625 131.9794921875 112.7935546875 130.3986328125 115.606640625 127.5861328125C118.4197265625 124.773046875 120 120.957421875 120 116.9794921875V56.9794921875C120 53.0009765625 118.4197265625 49.1859375 115.606640625 46.3728515625zM205.606640625 46.3728515625C202.7935546875 43.559765625 198.978515625 41.9794921875 195 41.9794921875C191.0220703125 41.9794921875 187.2064453125 43.559765625 184.393359375 46.3728515625C181.5802734375 49.1859375 180 53.0009765625 180 56.9794921875V116.9794921875C180 120.957421875 181.5802734375 124.773046875 184.393359375 127.5861328125C187.2064453125 130.3986328125 191.0220703125 131.9794921875 195 131.9794921875C198.978515625 131.9794921875 202.7935546875 130.3986328125 205.606640625 127.5861328125C208.4197265625 124.773046875 210 120.957421875 210 116.9794921875V56.9794921875C210 53.0009765625 208.4197265625 49.1859375 205.606640625 46.3728515625z" />
    <glyph glyph-name="develop-outline"
      unicode="&#xF13A;"
      horiz-adv-x="300" d="M0.0059628517034 178.5709418837676C0.0059628517034 227.4070941883768 39.595250501002 266.9962938577155 88.4308617234469 266.9962938577155H211.5721442885772C260.4084168336674 266.9962938577155 299.9975951903808 227.4069739478958 299.9975951903808 178.5709418837676V55.4302605210421C299.9975951903808 6.5939879759519 260.4084168336674 -32.9945891783567 211.5721442885772 -32.9945891783567H88.4308617234469C39.595250501002 -32.9945891783567 0.0059628517034 6.5939879759519 0.0059628517034 55.4302605210421V178.5709418837676zM88.4308617234469 243.9288577154309C52.3349699398798 243.9288577154309 23.0733667334669 214.667254509018 23.0733667334669 178.5709418837676V55.4302605210421C23.0733667334669 19.3340681362725 52.3349699398798 -9.9276553106213 88.4308617234469 -9.9276553106213H211.5721442885772C247.6683366733467 -9.9276553106213 276.9300601202405 19.3340681362725 276.9300601202405 55.4302605210421V178.5709418837676C276.9300601202405 214.667254509018 247.6683366733467 243.9288577154309 211.5721442885772 243.9288577154309H88.4308617234469zM112.0022044088177 139.613627254509C116.5064128256513 144.1184368737475 116.5064128256513 151.4212424849699 112.0022044088177 155.9254509018036C107.497995991984 160.4296593186373 100.1951903807615 160.4296593186373 95.6909819639279 155.9254509018036L64.9220440881764 125.1565130260521C60.4178356713427 120.6511022044088 60.4178356713427 113.3488977955912 64.9220440881764 108.8452905811623L95.6909819639279 78.0751503006012C100.1951903807615 73.5715430861723 107.497995991984 73.5715430861723 112.0022044088177 78.0751503006012C116.5064128256513 82.5799599198397 116.5064128256513 89.8827655310621 112.0022044088177 94.386372745491L89.3885771543086 117L112.0022044088177 139.613627254509zM204.312625250501 155.9254509018036C199.8072144288577 160.4296593186373 192.5050100200401 160.4296593186373 188.0014028056112 155.9254509018036C183.495991983968 151.4212424849699 183.495991983968 144.1184368737475 188.0014028056112 139.613627254509L210.6150300601202 117L188.0014028056112 94.386372745491C183.495991983968 89.8827655310621 183.495991983968 82.5799599198397 188.0014028056112 78.0751503006012C192.5050100200401 73.5715430861723 199.8072144288577 73.5715430861723 204.312625250501 78.0751503006012L235.0809619238477 108.8452905811623C239.5845691382766 113.3488977955912 239.5845691382766 120.6511022044088 235.0809619238477 125.1565130260521L204.312625250501 155.9254509018036zM173.0501002004008 160.0671342685371C174.7551102204409 166.2042084168336 171.161122244489 172.5619238476954 165.0246492985972 174.2675350701403C158.8875751503006 175.9725450901804 152.5286573146293 172.3791583166333 150.8236472945892 166.2420841683367L125.1775551102205 73.9340681362725C123.4725450901804 67.7963927855711 127.0659318637275 61.4386773547094 133.2036072144289 59.7336673346693C139.3400801603207 58.0286573146292 145.6983967935872 61.6214428857715 147.4034068136273 67.7591182364729L173.0501002004008 160.0671342685371z" />
    <glyph glyph-name="devices-outline"
      unicode="&#xF13B;"
      horiz-adv-x="300" d="M52.32556640625 253.046484375C31.1272265625 253.046484375 13.953515625 235.8727734375 13.953515625 214.67443359375V83.253515625C5.704951171875 79.3330078125 0 70.9236328125 0 61.1859375V47.232421875C0 33.7505859375 10.93658203125 22.8140625 24.41859375 22.8140625H181.3951171875V5.371875C181.3951171875 -8.1099609375 192.331640625 -19.046484375 205.8140625 -19.046484375H275.5816406250001C289.0634765625 -19.046484375 300 -8.1099609375 300 5.371875V33.27890625V123.9767578125C300 137.45859375 289.0634765625 148.3951171875 275.5816406250001 148.3951171875H272.09296875V214.67443359375C272.09296875 235.8727734375 254.919140625 253.046484375 233.72109375 253.046484375H52.32556640625zM279.0697265625 43.7443359375V123.9767578125C279.0697265625 125.89921875 277.5041015625 127.46484375 275.5816406250001 127.46484375H205.8140625C203.8916015625 127.46484375 202.325390625 125.89921875 202.325390625 123.9767578125V75.1587890625L202.325390625 75.139453125L202.325390625 75.1201171875V43.7443359375H279.0697265625zM202.325390625 22.8140625H279.0697265625V5.371875C279.0697265625 3.4494140625 277.5041015625 1.8837890625 275.5816406250001 1.8837890625H205.8140625C203.8916015625 1.8837890625 202.325390625 3.4494140625 202.325390625 5.371875V22.8140625zM181.3951171875 43.7443359375V64.674609375L24.41859375 64.674609375C22.496015625 64.674609375 20.93021484375 63.1083984375 20.93021484375 61.1859375V47.232421875C20.93021484375 45.3099609375 22.496015625 43.7443359375 24.41859375 43.7443359375H181.3951171875zM181.3951171875 123.9767578125V85.6048828125H34.88373046875V214.67443359375C34.88373046875 224.31328125 42.68671875 232.11626953125 52.32556640625 232.11626953125H233.72109375C243.359765625 232.11626953125 251.1626953125 224.31328125 251.1626953125 214.67443359375V148.3951171875H205.8140625C192.331640625 148.3951171875 181.3951171875 137.45859375 181.3951171875 123.9767578125z" />
    <glyph glyph-name="doc-outline"
      unicode="&#xF13C;"
      horiz-adv-x="300" d="M266.6396484375 192.0791015625L201.6134765625 258.7808203125C196.3494140625 264.1548984375 189.5373046875 267 182.105859375 267H65.0583984375C57.62712890625 267 50.81484375 264.1548984375 45.55083984375 258.7808203125C40.2868359375 253.40671875 37.5 246.45205078125 37.5 238.86509765625V-4.8650390625C37.5 -20.3548828125 49.8858984375 -33 65.0583984375 -33H247.44140625C262.6142578125 -33 274.9998046875 -20.3548828125 274.9998046875 -4.8650390625V172.1630859375C274.9998046875 179.750390625 271.9037109375 186.7048828125 266.6396484375 192.0791015625zM191.7046875 233.80716796875L242.48671875 181.962890625H196.96875C193.8720703125 181.962890625 191.7046875 184.4923828125 191.7046875 187.337109375V233.80716796875zM250.8474609375 -5.1814453125C250.8474609375 -7.078125 249.2994140625 -8.6583984375 247.44140625 -8.6583984375H65.0583984375C63.2009765625 -8.6583984375 61.65234375 -7.078125 61.65234375 -5.1814453125V238.86509765625C61.65234375 240.129609375 62.2716796875 241.07794921875 62.581640625 241.39412109375C63.2009765625 242.02634765625 63.8203125 242.3424609375 65.0583984375 242.3424609375H167.55234375V187.337109375C167.55234375 170.5828125 180.8671875 157.30546875 196.96875 157.30546875H250.5380859375V-5.1814453125H250.8474609375z" />
    <glyph glyph-name="doc"
      unicode="&#xF13D;"
      horiz-adv-x="300" d="M71.4275390625 267C38.8828125 267 12.49998046875 241.170234375 12.49998046875 209.3077734375V24.692578125C12.49998046875 -7.1701171875 38.8828125 -33 71.4275390625 -33H228.5689453125C261.113671875 -33 287.49609375 -7.1701171875 287.49609375 24.692578125V170.7263671875C287.497265625 170.7662109375 287.497265625 170.8060546875 287.497265625 170.8458984375C287.497265625 170.886328125 287.497265625 170.9255859375 287.49609375 170.966015625V172.8205078125C287.49609375 188.12109375 281.288671875 202.7958984375 270.2373046875 213.6151171875L232.96875 250.102265625C221.9173828125 260.9217187500001 206.928515625 267 191.2998046875 267H71.4275390625zM177.4986328125 243.92314453125H71.4275390625C51.9008203125 243.92314453125 36.07107421875 228.4252734375 36.07107421875 209.3077734375V24.692578125C36.07107421875 5.5751953125 51.9008203125 -9.922265625 71.4275390625 -9.922265625H228.5689453125C248.096484375 -9.922265625 263.925 5.5751953125 263.925 24.692578125V159.3076171875H220.7126953125C196.8462890625 159.3076171875 177.4986328125 178.24921875 177.4986328125 201.615234375V243.92314453125zM262.5486328125 182.384765625H220.7126953125C209.8634765625 182.384765625 201.0697265625 190.99453125 201.0697265625 201.615234375V242.57548828125C206.775 240.969375 212.028515625 237.9675 216.301171875 233.7844921875L253.5697265625 197.2974609375C257.8423828125 193.1138671875 260.90859375 187.9705078125 262.5486328125 182.384765625z" />
    <glyph glyph-name="door"
      unicode="&#xF13E;"
      horiz-adv-x="300" d="M233.5939453125 250.8235546875C238.00546875 250.8235546875 240.946875 247.88232421875 240.946875 243.47056640625V-9.4705078125C240.946875 -13.8826171875 238.00546875 -16.8234375 233.5939453125 -16.8234375H190.946484375V-5.058984375H229.1818359375V239.05880859375H190.946484375V250.8235546875H233.5939453125zM154.1818359375 103.76484375C158.5939453125 103.76484375 163.00546875 109.6470703125 163.00546875 117C163.00546875 124.3529296875 158.5939453125 130.23515625 154.1818359375 130.23515625C149.7703125 130.23515625 145.358203125 124.3529296875 145.358203125 117C145.358203125 109.6470703125 149.7703125 103.76484375 154.1818359375 103.76484375zM173.2998046875 267C176.240625 267 179.18203125 265.5294140625 179.18203125 262.588236328125V-28.5884765625C179.18203125 -31.529296875 176.240625 -33 173.2998046875 -33L61.53515625 6.7060546875C60.064453125 6.7060546875 58.59375 8.176171875 58.59375 11.117578125V222.88236328125C58.59375 224.35294921875 60.064453125 225.82353515625 61.53515625 227.29412109375L173.2998046875 267z" />
    <glyph glyph-name="dots"
      unicode="&#xF13F;"
      horiz-adv-x="300" d="M231.4453125 91.8046875Q222.0703125 91.8046875 215.33203125 99.12890625T208.59375 117T215.33203125 134.87109375T231.4453125 142.1953125Q236.1328125 142.1953125 240.234375 140.14453125T247.265625 134.578125T251.953125 126.66796875T253.7109375 117Q253.7109375 106.453125 247.265625 99.12890625T231.4453125 91.8046875zM153.80859375 91.8046875Q147.65625 91.8046875 142.67578125 95.3203125T135.05859375 104.40234375T132.421875 117Q132.421875 126.9609375 138.8671875 134.578125T153.515625 142.1953125Q158.203125 142.1953125 162.3046875 140.14453125T169.04296875 134.578125T173.4375 126.66796875T175.1953125 117Q175.1953125 109.96875 172.55859375 104.40234375T164.94140625 95.3203125T153.80859375 91.8046875zM75 91.8046875Q69.140625 91.8046875 63.8671875 95.3203125T55.6640625 104.40234375T52.734375 117Q52.734375 127.546875 59.1796875 134.87109375T75 142.1953125Q80.859375 142.1953125 86.1328125 138.6796875T94.3359375 129.59765625T97.265625 117T94.3359375 104.40234375T86.1328125 95.3203125T75 91.8046875z" />
    <glyph glyph-name="double-arrow"
      unicode="&#xF140;"
      horiz-adv-x="300" d="M236.4193359375 55.58671875L220.9400390625 71.066015625C219.93046875 72.0755859375 218.583984375 72.0755859375 217.5744140625 71.066015625L167.4345703125 21.598828125C165.7517578125 19.9166015625 163.3962890625 21.2625 163.3962890625 23.281640625V210.3819140625C163.3962890625 212.40099609375 166.088671875 213.7470703125 167.4345703125 212.0644921875L217.2380859375 162.2607421875C218.24765625 161.251171875 219.5935546875 161.251171875 220.603125 162.2607421875L236.0830078125 177.7400390625C237.092578125 178.749609375 237.092578125 180.09609375 236.0830078125 181.1056640625L151.618359375 266.2428515625C150.6087890625 267.2523837890625 149.262890625 267.2523837890625 148.2533203125 266.2428515625L63.45234375 181.4419921875C62.4427734375 180.432421875 62.4427734375 179.0865234375 63.45234375 178.076953125L78.9322265625 162.5970703125C79.941796875 161.5875 81.2876953125 161.5875 82.297265625 162.5970703125L132.437109375 212.40099609375C134.119921875 214.08357421875 136.475390625 212.7375 136.475390625 210.7184765625V23.281640625C136.475390625 21.2625 133.78359375 19.9166015625 132.437109375 21.598828125L82.297265625 71.4029296875C81.2876953125 72.4125 79.941796875 72.4125 78.9322265625 71.4029296875L63.45234375 55.923046875C62.4427734375 54.9134765625 62.4427734375 53.567578125 63.45234375 52.5580078125L148.2533203125 -32.24296875C149.262890625 -33.2525390625 150.6087890625 -33.2525390625 151.618359375 -32.24296875L236.4193359375 52.5580078125C237.42890625 53.23125 237.42890625 54.5771484375 236.4193359375 55.58671875z" />
    <glyph glyph-name="download"
      unicode="&#xF141;"
      horiz-adv-x="300" d="M26.3671875 2.2939453125V-33H273.4259765625V2.2939453125H26.3671875zM273.4259765625 161.117578125H202.8375V267H96.9556640625V161.117578125H26.3671875L149.896875 37.5884765625L273.4259765625 161.117578125z" />
    <glyph glyph-name="e-proctoring-logo"
      unicode="&#xF142;"
      horiz-adv-x="300" d="M191.230078125 100.564453125C181.5615234375 106.1689453125 170.09765625 112.875 147.4576171875 126.0474609375C146.03203125 125.2142578125 124.960546875 113.0162109375 103.8052734375 100.773046875C109.3517578125 110.4375 116.019140625 121.95 129.036328125 144.5361328125C128.203125 145.965234375 115.953515625 167.216015625 103.6939453125 188.4984375C113.3537109375 182.89453125 124.8263671875 176.1873046875 147.4576171875 163.0130859375C148.8826171875 163.8486328125 169.95703125 176.0478515625 191.1111328125 188.2892578125C185.5634765625 178.6236328125 178.9048828125 167.1134765625 165.8794921875 144.5267578125C166.719140625 143.1041015625 178.962890625 121.845703125 191.230078125 100.564453125M221.99296875 69.6650390625C205.5392578125 79.20234375 186.0111328125 90.617578125 147.4587890625 113.0607421875C145.03828125 111.6380859375 109.1443359375 90.863671875 73.116796875 70.01484375C82.5626953125 86.466796875 93.9158203125 106.079296875 116.087109375 144.53671875C114.66796875 146.9724609375 93.8115234375 183.1634765625 72.924609375 219.3990234375C89.3859375 209.8603125 108.9146484375 198.4447265625 147.46640625 176.0103515625C149.888671875 177.4265625 185.77265625 198.200390625 221.80078125 219.0478125C212.35546875 202.594921875 201.00234375 182.9841796875 178.83046875 144.5279296875C180.2572265625 142.09921875 201.11484375 105.9 221.99296875 69.6650390625M147 -33L80.994140625 2.2822265625C62.1767578125 12.3181640625 46.44099609375 27.3017578125 35.47517578125 45.624609375C24.509296875 63.9474609375 18.72744140625 84.9181640625 18.75005859375 106.285546875V245.5714453125C18.7557421875 251.25287109375 21.00955078125 256.7000390625001 25.01689453125 260.7174609375C29.024296875 264.734859375 34.4578125 266.9943270351563 40.12505859375 267H253.875C259.5421875 266.9943270351563 264.9755859375 264.734859375 268.9828125 260.7174609375C272.990625 256.7000390625001 275.244140625 251.25287109375 275.25 245.5714453125V106.285546875C275.2728515625 84.9181640625 269.4908203125 63.9474609375 258.525 45.624609375C247.5591796875 27.3017578125 231.8232421875 12.3181640625 213.005859375 2.2822265625L147 -33zM40.12505859375 245.5714453125V106.285546875C40.1073046875 88.80234375 44.8393359375 71.64375 53.813203125 56.6525390625C62.7873046875 41.6607421875 75.6638671875 29.40234375 91.06171875 21.1927734375L147 -8.710546875L202.93828125 21.1822265625C218.337890625 29.3923828125 231.215625 41.6525390625 240.1892578125 56.64609375C249.1634765625 71.6396484375 253.8943359375 88.8 253.875 106.285546875V245.5714453125H40.12505859375z" />
    <glyph glyph-name="e-proctoring-plugin"
      unicode="&#xF143;"
      horiz-adv-x="300" d="M161.319 195.3288V255.72858C161.319 261.958776 156.2778 267 150.0474 267H149.9514C143.721 267 138.681 261.958776 138.681 255.72858V195.3288C138.681 189.099 143.721 184.0578 149.9514 184.0578H150.0474C156.2778 184.0578 161.319 189.099 161.319 195.3288zM170.841 210.88248V244.22124C225.486 235.4235 268.3836 192.5256 277.23 137.8812H243.891C235.9014 174.4056 207.414 202.893 170.841 210.88248zM56.08164 137.88H22.79052C31.5891 192.5256 74.487 235.4235 129.1788 244.22124V210.88248C92.607 202.893 64.119 174.4056 56.08164 137.88zM170.841 23.169C207.366 31.1586 235.854 59.646 243.891 96.171H277.23C268.3836 41.526 225.4848 -1.371 170.841 -10.17V23.169zM22.79052 96.171H56.08164C64.119 59.646 92.607 31.1586 129.1788 23.169V-10.17C74.487 -1.371 31.5891 41.526 22.79052 96.171zM161.319 38.7186V-21.681C161.319 -27.9114 156.2778 -33 150.0462 -33H149.9514C143.721 -33 138.681 -27.9114 138.681 -21.681V38.7186C138.681 44.949 143.721 49.9902 149.9514 49.9902H150.0462C156.2778 49.9902 161.319 44.949 161.319 38.7186zM300 117V117.0474C300 123.2778 294.9588 128.3664 288.729 128.3664H228.3288C222.099 128.3664 217.0098 123.2778 217.0098 117.0474V117C217.0098 110.7702 222.099 105.681 228.3288 105.681H288.729C294.9588 105.681 300 110.7702 300 117zM82.9896 117.0474V117C82.9896 110.7702 77.9484 105.681 71.67 105.681H11.3184C5.040312 105.681 0 110.7702 0 117V117.0474C0 123.2778 5.040312 128.3664 11.3184 128.3664H71.67C77.9484 128.3664 82.9896 123.2778 82.9896 117.0474zM177.405 146.6304V129.1776C185.3952 121.6152 190.0074 111.1524 190.0074 100.071C190.0074 78.0036 172.0314 60.0738 150.0114 60.0738C127.944 60.0738 110.0142 78.0036 110.0142 100.071C110.0142 111.1524 114.5802 121.6152 122.6172 129.1776V146.6304C122.6172 161.7072 134.8878 173.9766 149.964 173.9766C165.135 173.9766 177.405 161.7072 177.405 146.6304zM153.5772 89.2272V98.169C156.5262 99.4998 158.571 102.4962 158.571 105.921C158.571 110.676 154.7202 114.5286 150.0114 114.5286C145.2552 114.5286 141.45 110.676 141.45 105.921C141.45 102.4962 143.4948 99.4998 146.4438 98.169V89.2272C146.4438 87.2574 148.041 85.6614 150.0114 85.6614C151.9812 85.6614 153.5772 87.2574 153.5772 89.2272zM129.7512 134.5986C133.3188 138.2136 151.5798 143.9676 170.271 134.5986V146.631C170.271 157.7598 161.235 166.8432 150.1062 166.8432C138.7878 166.8432 129.7512 157.7598 129.7512 146.631V134.5986z" />
    <glyph glyph-name="e-proctoring"
      unicode="&#xF144;"
      horiz-adv-x="300" d="M161.319140625 195.329296875V255.72861328125C161.319140625 261.95878125 156.277734375 267 150.046875 267H149.951953125C143.72109375 267 138.680859375 261.95878125 138.680859375 255.72861328125V195.329296875C138.680859375 189.0990234375 143.72109375 184.0576171875 149.951953125 184.0576171875H150.046875C156.277734375 184.0576171875 161.319140625 189.0990234375 161.319140625 195.329296875zM170.840625 210.8825390625V244.2212109375C225.4857421875 235.42353515625 268.3833984375 192.5255859375 277.229296875 137.88046875H243.8912109375C235.90078125 174.40546875 207.413671875 202.8931640625 170.840625 210.8825390625zM56.0816015625 137.88046875H22.7905078125C31.5890625 192.5255859375 74.48671875 235.42353515625 129.179296875 244.2212109375V210.88248046875C92.6068359375 202.8931640625 64.119140625 174.40546875 56.0816015625 137.88046875zM170.840625 23.1685546875C207.365625 31.1583984375 235.85390625 59.64609375 243.8912109375 96.1716796875H277.229296875C268.3833984375 41.5265625 225.4857421875 -1.3716796875 170.840625 -10.1701171875V23.1685546875zM22.7905078125 96.1716796875H56.0816015625C64.119140625 59.64609375 92.6068359375 31.1583984375 129.179296875 23.1685546875V-10.1701171875C74.48671875 -1.3716796875 31.5890625 41.5265625 22.7905078125 96.1716796875zM161.319140625 38.7181640625V-21.680859375C161.319140625 -27.9111328125 156.277734375 -33 150.046875 -33H149.951953125C143.72109375 -33 138.680859375 -27.9111328125 138.680859375 -21.680859375V38.7181640625C138.680859375 44.9484375 143.72109375 49.98984375 149.951953125 49.98984375H150.046875C156.277734375 49.98984375 161.319140625 44.9484375 161.319140625 38.7181640625zM300 117V117.0474609375C300 123.277734375 294.959765625 128.3666015625 288.7294921875 128.3666015625H228.3287109375C222.099609375 128.3666015625 217.0107421875 123.277734375 217.0107421875 117.0474609375V117C217.0107421875 110.7697265625 222.099609375 105.680859375 228.3287109375 105.680859375H288.7294921875C294.959765625 105.680859375 300 110.7697265625 300 117zM82.98984375 117.0474609375V117C82.98984375 110.7697265625 77.9478515625 105.680859375 71.6701171875 105.680859375H11.31837890625C5.04031640625 105.680859375 0 110.7697265625 0 117V117.0474609375C0 123.277734375 5.04031640625 128.3666015625 11.31837890625 128.3666015625H71.6701171875C77.9484375 128.3666015625 82.98984375 123.277734375 82.98984375 117.0474609375zM177.4048828125 146.630859375V129.176953125C185.3947265625 121.6154296875 190.0083984375 111.15234375 190.0078125 100.07109375C190.0078125 78.003515625 172.0306640625 60.073828125 150.0111328125 60.073828125C127.944140625 60.073828125 110.014453125 78.003515625 110.014453125 100.07109375C110.014453125 111.1517578125 114.580078125 121.6154296875 122.6173828125 129.176953125V146.630859375C122.6173828125 161.7076171875 134.8875 173.9771484375 149.963671875 173.9771484375C165.134765625 173.9771484375 177.4048828125 161.7076171875 177.4048828125 146.630859375zM153.577734375 89.227734375V98.1685546875C156.5267578125 99.500390625 158.5716796875 102.496875 158.5716796875 105.9205078125C158.5716796875 110.6765625 154.7197265625 114.528515625 150.0111328125 114.528515625C145.255078125 114.528515625 141.4505859375 110.6765625 141.4505859375 105.9205078125C141.4505859375 102.496875 143.4955078125 99.500390625 146.4439453125 98.1685546875V89.227734375C146.4439453125 87.2578125 148.0412109375 85.660546875 150.0111328125 85.660546875C151.9810546875 85.660546875 153.577734375 87.2578125 153.577734375 89.227734375zM129.751171875 134.5986328125C133.318359375 138.21328125 151.580859375 143.9677734375 170.27109375 134.5986328125V146.630859375C170.27109375 157.7595703125 161.2353515625 166.843359375 150.1060546875 166.843359375C138.7875 166.843359375 129.751171875 157.7595703125 129.751171875 146.630859375V134.5986328125z" />
    <glyph glyph-name="edit"
      unicode="&#xF145;"
      horiz-adv-x="300" d="M85.28671875 -10.3939453125C83.790234375 -13.386328125 82.2943359375 -14.8828125 80.7978515625 -14.8828125L8.97755859375 -32.8376953125H7.48130859375C5.98505859375 -32.8376953125 4.488779296875 -31.341796875 2.992517578125 -29.8453125C6.688828e-7 -29.8453125 0 -26.8529296875 0 -23.860546875L17.9551171875 47.96015625C17.9551171875 50.9525390625 20.9476171875 52.4490234375 22.4438671875 52.4490234375C25.43642578125 53.9455078125 26.93267578125 52.4490234375 28.42892578125 50.9525390625L82.2943359375 -2.9126953125C85.28671875 -5.905078125 86.783203125 -7.4015625 85.28671875 -10.3939453125zM225.93515625 128.7580078125L100.24921875 4.5685546875C98.7533203125 3.07265625 97.2568359375 1.576171875 95.7603515625 1.576171875C94.264453125 1.576171875 92.76796875 3.07265625 91.2720703125 4.5685546875L37.406484375 56.937890625C34.413984375 59.9302734375 34.413984375 64.419140625 37.406484375 67.4115234375L161.5962890625 191.6009765625C164.588671875 194.593359375 169.0775390625 194.593359375 172.069921875 191.6009765625L225.93515625 137.7357421875C227.431640625 136.2392578125 228.9275390625 134.743359375 228.9275390625 133.246875C227.431640625 133.246875 227.431640625 130.2544921875 225.93515625 128.7580078125zM297.755859375 202.0751953125L261.8455078125 167.6607421875C260.3490234375 166.16484375 258.8531250000001 164.668359375 257.356640625 164.668359375C255.86015625 164.668359375 254.3642578125 166.16484375 252.8677734375 167.6607421875L200.4990234375 220.03001953125C197.5060546875 223.02251953125 197.5060546875 227.511328125 200.4990234375 230.503828125L234.912890625 264.917806640625C234.912890625 264.917806640625 237.9052734375 266.4140625 239.4017578125 266.4140625C240.89765625 266.4140625 242.394140625 264.91780078125 243.8900390625 263.421544921875L297.755859375 209.5562109375C300.7482421875 209.5562109375 300.7482421875 203.57109375 297.755859375 202.0751953125z" />
    </font>
</defs>
</svg>
